<svg width="36" height="36" fill="none" xmlns="http://www.w3.org/2000/svg"><rect width="36" height="36" rx="5" fill="#E1AB99"/><path d="M23.9 17.351c1.802-.993 2.874-2.901 2.874-5.126 0-2.584-1.406-4.694-3.676-5.581C21.775 6.108 20.474 6 18.803 6H8.857A.857.857 0 0 0 8 6.857v1.77c0 .474.384.858.857.858h1.774v17.064H8.857a.857.857 0 0 0-.857.857v1.737c0 .473.384.857.857.857H19.34c1.297 0 2.402-.07 3.583-.406 2.73-.816 4.791-3.31 4.791-6.558 0-2.794-1.423-4.911-3.814-5.685zm-8.71-7.665h3.613c.873 0 1.475.108 2.01.36.849.454 1.335 1.42 1.335 2.649 0 1.877-1.089 3.042-2.841 3.042H15.19v-6.05zm6.035 16.365c-.544.217-1.215.263-1.683.263H15.19V19.39h4.52c2.124 0 3.378 1.36 3.378 3.378 0 1.523-.732 2.811-1.863 3.283z" fill="#1A1A1A"/></svg>