<svg width="36" height="36" fill="none" xmlns="http://www.w3.org/2000/svg"><rect width="36" height="36" rx="5" fill="#E1AB99"/><path d="M30 9.4V7.8a.8.8 0 0 0-.8-.8h-8a.8.8 0 0 0-.8.8v1.6a.8.8 0 0 0 .8.8h1.881v6.4H12.92v-6.4H14.8a.8.8 0 0 0 .8-.8V7.8a.8.8 0 0 0-.8-.8h-8a.8.8 0 0 0-.8.8v1.6a.8.8 0 0 0 .8.8h1.864v16H6.8a.8.8 0 0 0-.8.8v1.6a.8.8 0 0 0 .8.8h8a.8.8 0 0 0 .8-.8V27a.8.8 0 0 0-.8-.8h-1.881v-6.4h10.162v6.4H21.2a.8.8 0 0 0-.8.8v1.6a.8.8 0 0 0 .8.8h8a.8.8 0 0 0 .8-.8V27a.8.8 0 0 0-.8-.8h-1.864v-16H29.2a.8.8 0 0 0 .8-.8z" fill="#1A1A1A"/></svg>