<svg width="36" height="37" fill="none" xmlns="http://www.w3.org/2000/svg"><path d="M32.143.906H3.857A3.857 3.857 0 0 0 0 4.763V33.05a3.857 3.857 0 0 0 3.857 3.857h28.286A3.857 3.857 0 0 0 36 33.05V4.763A3.857 3.857 0 0 0 32.143.906zM18 7.817a3.375 3.375 0 1 1 0 6.75 3.375 3.375 0 0 1 0-6.75zm4.5 20.41a.964.964 0 0 1-.964.965h-7.072a.964.964 0 0 1-.964-.964v-1.929c0-.532.432-.964.964-.964h.965v-5.143h-.965a.964.964 0 0 1-.964-.964v-1.929c0-.532.432-.964.964-.964h5.143c.533 0 .964.432.964.964v8.036h.965c.532 0 .964.432.964.964v1.929z" fill="#E1AB99"/></svg>