<svg width="36" height="36" fill="none" xmlns="http://www.w3.org/2000/svg"><path d="M32.143 0H3.857A3.857 3.857 0 0 0 0 3.857v28.286A3.857 3.857 0 0 0 3.857 36h28.286A3.857 3.857 0 0 0 36 32.143V3.857A3.857 3.857 0 0 0 32.143 0zM18 6.91a3.375 3.375 0 1 1 0 6.75 3.375 3.375 0 0 1 0-6.75zm4.5 20.411a.964.964 0 0 1-.964.965h-7.072a.964.964 0 0 1-.964-.965v-1.928c0-.533.432-.964.964-.964h.965v-5.143h-.965a.964.964 0 0 1-.964-.965v-1.928c0-.533.432-.964.964-.964h5.143c.533 0 .964.431.964.964v8.036h.965c.532 0 .964.431.964.964v1.928z" fill="#FCFCF9"/></svg>