<svg width="36" height="36" fill="none" xmlns="http://www.w3.org/2000/svg"><rect width="36" height="36" rx="5" fill="#FCFCF9"/><path d="M20.73 15.27a6.572 6.572 0 0 1 .456 8.774c-.292.362-.13.181-3.981 4.032a6.558 6.558 0 0 1-9.281 0 6.558 6.558 0 0 1 0-9.28l2.972-2.975c.35-.35.953-.11.96.384.01.597.084 1.192.223 1.773a.56.56 0 0 1-.15.525l-2.15 2.149a3.936 3.936 0 0 0 0 5.569 3.937 3.937 0 0 0 5.57 0l3.524-3.526a3.942 3.942 0 0 0-1.07-6.329.564.564 0 0 1-.307-.578 2.425 2.425 0 0 1 .694-1.425l.205-.206a.56.56 0 0 1 .646-.107c.609.306 1.18.713 1.688 1.22zm7.346-7.346a6.558 6.558 0 0 0-9.28 0c-3.852 3.85-3.69 3.67-3.982 4.032a6.571 6.571 0 0 0 .457 8.773c.508.508 1.08.915 1.688 1.221a.56.56 0 0 0 .646-.107l.205-.206c.399-.399.63-.903.694-1.425a.564.564 0 0 0-.308-.578 3.942 3.942 0 0 1-1.07-6.329l3.526-3.525a3.936 3.936 0 0 1 5.568 0 3.936 3.936 0 0 1 0 5.568l-2.149 2.149a.56.56 0 0 0-.15.525 8.12 8.12 0 0 1 .223 1.773c.007.494.61.733.96.384l2.972-2.974a6.558 6.558 0 0 0 0-9.281z" fill="#000"/></svg>