<svg width="36" height="36" fill="none" xmlns="http://www.w3.org/2000/svg"><rect width="36" height="36" rx="5" fill="#E1AB99"/><path d="M10.5 10.25a2.25 2.25 0 1 1-4.5 0 2.25 2.25 0 0 1 4.5 0zM8.25 15.5a2.25 2.25 0 1 0 0 4.5 2.25 2.25 0 0 0 0-4.5zm0 7.5a2.25 2.25 0 1 0 0 4.5 2.25 2.25 0 0 0 0-4.5zm4.5-11.063h16.5a.75.75 0 0 0 .75-.75V9.313a.75.75 0 0 0-.75-.75h-16.5a.75.75 0 0 0-.75.75v1.874c0 .415.336.75.75.75zm0 7.5h16.5a.75.75 0 0 0 .75-.75v-1.875a.75.75 0 0 0-.75-.75h-16.5a.75.75 0 0 0-.75.75v1.875c0 .415.336.75.75.75zm0 7.5h16.5a.75.75 0 0 0 .75-.75v-1.875a.75.75 0 0 0-.75-.75h-16.5a.75.75 0 0 0-.75.75v1.875c0 .415.336.75.75.75z" fill="#000"/></svg>