<svg width="285" height="64" fill="none" xmlns="http://www.w3.org/2000/svg"><rect width="285" height="64" rx="5" fill="#E1AB99"/><path d="M28.256 26.68v-2.976H17v17.088h3.336v-6.936h6.744V30.88h-6.744v-4.2h7.92zM44.175 32.248c0-2.952.025-5.088-1.703-6.816-1.2-1.2-2.665-1.872-4.608-1.872-1.944 0-3.432.672-4.633 1.872-1.728 1.728-1.68 3.864-1.68 6.816s-.047 5.088 1.68 6.816c1.2 1.2 2.688 1.872 4.633 1.872 1.944 0 3.408-.672 4.608-1.872 1.727-1.728 1.703-3.864 1.703-6.816zm-3.335 0c0 3.288-.193 4.08-.84 4.8-.48.552-1.224.912-2.136.912-.912 0-1.68-.36-2.16-.912-.648-.72-.816-1.512-.816-4.8s.168-4.08.816-4.8c.48-.552 1.248-.912 2.16-.912.912 0 1.656.36 2.136.912.648.72.84 1.512.84 4.8zM41.846 22v-3h-2.663v3h2.663zm-5.303 0v-3H33.88v3h2.663zM61.949 40.792l-3.816-7.368c1.656-.6 3.12-2.088 3.12-4.488 0-2.856-2.064-5.232-5.544-5.232h-6.696v17.088h3.336v-6.816h2.4l3.336 6.816h3.864zm-4.032-11.856c0 1.32-.96 2.256-2.424 2.256h-3.144V26.68h3.144c1.464 0 2.424.936 2.424 2.256zM78.612 40.792V23.704h-3.336v6.984h-5.784v-6.984h-3.336v17.088h3.336V33.64h5.784v7.152h3.336zM97.226 40.792l-6.24-17.088H88.37l-6.216 17.088h3.48l1.032-3.024h6.072l1.008 3.024h3.48zM91.85 34.96h-4.248l2.16-6.216 2.088 6.216zM113.85 40.792V23.704h-3.336v10.464l-6.768-10.464h-2.976v17.088h3.336V30.304l6.768 10.488h2.976zM131.681 32.176c0-2.568.192-4.92-1.728-6.84-1.128-1.128-2.736-1.632-4.512-1.632h-6.168v17.088h6.168c1.776 0 3.384-.504 4.512-1.632 1.92-1.92 1.728-4.416 1.728-6.984zm-3.336 0c0 2.592-.096 3.816-.72 4.584-.576.696-1.344 1.056-2.496 1.056h-2.52V26.68h2.52c1.152 0 1.92.36 2.496 1.056.624.768.72 1.848.72 4.44zM147.573 35.752c0-1.512-.408-2.76-1.32-3.624-.72-.672-1.704-1.104-3.264-1.32l-2.016-.288c-.696-.096-1.248-.36-1.584-.672-.36-.336-.504-.792-.504-1.224 0-1.176.864-2.16 2.64-2.16 1.128 0 2.424.144 3.504 1.176l2.112-2.088c-1.464-1.416-3.168-1.992-5.52-1.992-3.696 0-5.952 2.136-5.952 5.184 0 1.44.408 2.544 1.224 3.36.768.744 1.848 1.2 3.312 1.416l2.064.288c.792.12 1.176.288 1.512.6.36.336.528.84.528 1.44 0 1.368-1.056 2.112-3.024 2.112-1.584 0-3.048-.36-4.128-1.44l-2.16 2.16c1.68 1.704 3.648 2.256 6.24 2.256 3.576 0 6.336-1.872 6.336-5.184zM164.321 33.784v-2.496h-6.456v2.784h3.144v.648c0 .936-.264 1.704-.768 2.28-.6.648-1.392.96-2.376.96-.912 0-1.632-.288-2.136-.888-.672-.792-.816-1.464-.816-4.824 0-3.384.192-4.008.816-4.8.528-.6 1.248-.912 2.136-.912 1.656 0 2.664.84 3.072 2.496h3.36c-.456-2.976-2.544-5.472-6.432-5.472-1.824 0-3.36.624-4.608 1.872-.744.744-1.2 1.584-1.392 2.568-.192.96-.288 2.376-.288 4.248 0 1.872.096 3.288.288 4.248.192.96.648 1.824 1.392 2.568 1.248 1.248 2.784 1.872 4.608 1.872 1.92 0 3.504-.6 4.824-1.944 1.176-1.248 1.632-2.712 1.632-5.208zM181.81 40.792l-3.816-7.368c1.656-.6 3.12-2.088 3.12-4.488 0-2.856-2.064-5.232-5.544-5.232h-6.696v17.088h3.336v-6.816h2.4l3.336 6.816h3.864zm-4.032-11.856c0 1.32-.96 2.256-2.424 2.256h-3.144V26.68h3.144c1.464 0 2.424.936 2.424 2.256zM199.217 40.792l-6.24-17.088h-2.616l-6.216 17.088h3.48l1.032-3.024h6.072l1.008 3.024h3.48zm-5.376-5.832h-4.248l2.16-6.216 2.088 6.216zM215.842 40.792V23.704h-3.336v10.464l-6.768-10.464h-2.976v17.088h3.336V30.304l6.768 10.488h2.976zM232.304 35.752c0-1.512-.408-2.76-1.32-3.624-.72-.672-1.704-1.104-3.264-1.32l-2.016-.288c-.696-.096-1.248-.36-1.584-.672-.36-.336-.504-.792-.504-1.224 0-1.176.864-2.16 2.64-2.16 1.128 0 2.424.144 3.504 1.176l2.112-2.088c-1.464-1.416-3.168-1.992-5.52-1.992-3.696 0-5.952 2.136-5.952 5.184 0 1.44.408 2.544 1.224 3.36.768.744 1.848 1.2 3.312 1.416l2.064.288c.792.12 1.176.288 1.512.6.36.336.528.84.528 1.44 0 1.368-1.056 2.112-3.024 2.112-1.584 0-3.048-.36-4.128-1.44l-2.16 2.16c1.68 1.704 3.648 2.256 6.24 2.256 3.576 0 6.336-1.872 6.336-5.184zM250.708 40.792l-6.072-10.296 5.664-6.792h-4.056l-6.024 7.44v-7.44h-3.336v17.088h3.336v-5.136l2.208-2.64 4.392 7.776h3.888zM267.485 40.792l-6.24-17.088h-2.616l-6.216 17.088h3.48l1.032-3.024h6.072l1.008 3.024h3.48zm-5.376-5.832h-4.248l2.16-6.216 2.088 6.216z" fill="#1A1A1A"/></svg>