<svg width="36" height="36" fill="none" xmlns="http://www.w3.org/2000/svg"><rect width="36" height="36" rx="5" fill="#E1AB99"/><path d="M27.75 8h-6a2.25 2.25 0 0 0-2.25 2.25v6a2.25 2.25 0 0 0 2.25 2.25h3.75v3c0 1.655-1.345 3-3 3h-.375c-.623 0-1.125.502-1.125 1.125v2.25c0 .623.502 1.125 1.125 1.125h.375c4.144 0 7.5-3.356 7.5-7.5V10.25A2.25 2.25 0 0 0 27.75 8zm-13.5 0h-6A2.25 2.25 0 0 0 6 10.25v6a2.25 2.25 0 0 0 2.25 2.25H12v3c0 1.655-1.345 3-3 3h-.375c-.623 0-1.125.502-1.125 1.125v2.25c0 .623.502 1.125 1.125 1.125H9c4.144 0 7.5-3.356 7.5-7.5V10.25A2.25 2.25 0 0 0 14.25 8z" fill="#1A1A1A"/></svg>