<svg width="36" height="36" fill="none" xmlns="http://www.w3.org/2000/svg"><rect width="36" height="36" rx="5" fill="#FCFCF9"/><path d="M17.512 24.199c-4.297 0-7.34-2.399-7.34-7.097V9H8.845a.75.75 0 0 1-.75-.75v-1.5a.75.75 0 0 1 .75-.75h6.44a.75.75 0 0 1 .75.75v1.5a.75.75 0 0 1-.75.75h-1.35v8.102c0 2.517 1.327 3.724 3.577 3.724 2.202 0 3.553-1.192 3.553-3.748V9H19.74a.75.75 0 0 1-.75-.75v-1.5a.75.75 0 0 1 .75-.75h6.416a.75.75 0 0 1 .75.75v1.5a.75.75 0 0 1-.75.75h-1.326v8.102c0 4.66-3.042 7.097-7.317 7.097zM7.75 27h19.5a.75.75 0 0 1 .75.75v1.5a.75.75 0 0 1-.75.75H7.75a.75.75 0 0 1-.75-.75v-1.5a.75.75 0 0 1 .75-.75z" fill="#1A1A1A"/></svg>