<?xml version="1.0" encoding="utf-8"?>
<!-- Generator: Adobe Illustrator 16.0.0, SVG Export Plug-In . SVG Version: 6.00 Build 0)  -->
<!DOCTYPE svg PUBLIC "-//W3C//DTD SVG 1.1//EN" "http://www.w3.org/Graphics/SVG/1.1/DTD/svg11.dtd">
<svg version="1.1" id="Layer_1" xmlns="http://www.w3.org/2000/svg" xmlns:xlink="http://www.w3.org/1999/xlink" x="0px" y="0px"
	 width="25px" height="25px" viewBox="0 0 25 25" enable-background="new 0 0 25 25" xml:space="preserve">
<path fill="#333333" d="M18.534,0.419c0.091,0.039,0.183,0.104,0.274,0.183c0.145,0.157,0.21,0.354,0.21,0.576
	c0,0.222-0.065,0.418-0.21,0.576L8.01,12.552l10.643,10.642c0.156,0.156,0.235,0.354,0.235,0.575c0,0.223-0.079,0.419-0.235,0.576
	c-0.158,0.157-0.354,0.235-0.576,0.235s-0.419-0.078-0.576-0.235L6.283,13.128c-0.158-0.156-0.236-0.353-0.236-0.576
	c0-0.222,0.078-0.419,0.236-0.576L17.631,0.602c0.078-0.079,0.17-0.144,0.275-0.183c0.104-0.04,0.209-0.065,0.326-0.065
	C18.324,0.367,18.43,0.379,18.534,0.419z"/>
</svg>
