<svg width="36" height="36" fill="none" xmlns="http://www.w3.org/2000/svg"><circle cx="18" cy="18" r="18" fill="#E1AB99"/><path d="M22.286 12.571v11.09l-3.777-3.625-.795-.76-.794.76-3.777 3.625V12.57h9.143zm.107-1.142h-9.357a.999.999 0 0 0-.393.08.99.99 0 0 0-.643.92v11.508c0 .402.25.768.643.92.125.054.259.08.393.08.277 0 .535-.107.74-.294l3.938-3.786 3.938 3.786c.205.187.464.286.74.286a.99.99 0 0 0 .394-.072.99.99 0 0 0 .643-.92V12.43a.99.99 0 0 0-.643-.92.999.999 0 0 0-.393-.08z" fill="#000"/></svg>