<svg width="56" height="56" fill="none" xmlns="http://www.w3.org/2000/svg"><g filter="url(#filter0_d)"><circle cx="28" cy="26" r="24" fill="#F8F8F8"/><path d="M35.5 14h-15a4.5 4.5 0 0 0-4.5 4.5v15c0 2.5 2 4.5 4.5 4.5h8.3v-9.3h-3.1v-3.6h3.1v-2.7c0-3 2-4.8 4.7-4.8l2.8.2V21h-2c-1.5 0-1.7.7-1.7 1.8V25H36l-.4 3.6h-3.1V38h2.9c2.5 0 4.5-2 4.5-4.5v-15c0-2.5-2-4.5-4.5-4.5z" fill="#1A1A1A"/></g><defs><filter id="filter0_d" x="0" y="0" width="56" height="56" filterUnits="userSpaceOnUse" color-interpolation-filters="sRGB"><feFlood flood-opacity="0" result="BackgroundImageFix"/><feColorMatrix in="SourceAlpha" values="0 0 0 0 0 0 0 0 0 0 0 0 0 0 0 0 0 0 127 0"/><feOffset dy="2"/><feGaussianBlur stdDeviation="2"/><feColorMatrix values="0 0 0 0 0 0 0 0 0 0 0 0 0 0 0 0 0 0 0.25 0"/><feBlend in2="BackgroundImageFix" result="effect1_dropShadow"/><feBlend in="SourceGraphic" in2="effect1_dropShadow" result="shape"/></filter></defs></svg>