<svg width="178" height="182" fill="none" xmlns="http://www.w3.org/2000/svg"><path d="M92.87 181.984a7.643 7.643 0 0 0-.843-.227c-.356-.056-.59-.195-.601-.586-.034-.922-.067-1.845-.094-2.766 0-.112.072-.286.023-.329-.605-.512-.304-1.174-.348-1.788a1.305 1.305 0 0 0-.34-.681c-.37-.434-.61-.895-.569-1.484.051-.74.04-1.487.128-2.222.133-1.121-.256-2.117-.635-3.13a10.786 10.786 0 0 1-.652-3.363 8.791 8.791 0 0 0-.16-1.021c-.394.266-.769.554-1.18.771-.577.313-2.233.023-2.692-.432a.342.342 0 0 1-.12-.167c-.122-1.058-.261-2.116-.344-3.18-.037-.483.23-1.082.028-1.444-.607-1.086-.423-2.071.094-3.071.247-.481.277-.923-.026-1.383-.351-.542-.045-1.08.03-1.616.048-.139.073-.286.074-.434-.125-.565-.365-1.115-.41-1.682-.073-.937-.018-1.884-.04-2.827-.017-.761-.021-1.527-.113-2.283-.106-.854-.3-1.697-.462-2.542a2.031 2.031 0 0 0-.133-.302c-.11.71-.185 1.293-.291 1.87-.393 2.152-.821 4.288-1.179 6.44-.345 2.056-.61 4.125-.944 6.183a6.533 6.533 0 0 1-.446 1.27c-.476 1.206-.538 2.486-.715 3.753a51.46 51.46 0 0 0-.44 7.792c0 .453.082.905.11 1.357a5.85 5.85 0 0 1-1.098 3.838 2.387 2.387 0 0 0-.419 1.381c-.021.782-.147 1.577-.224 2.365-.01.103-.01.206 0 .309.089.874-.047 1.08-.944 1.291-.615.145-1.2.331-1.876.047a2.26 2.26 0 0 1-1.179-1.133 1.93 1.93 0 0 0-.524-.708 3.327 3.327 0 0 1-1.261-1.619c-.31-.832.52-2.571 1.365-2.805.438-.12.664-.296.452-.842-.197-.491-.024-.978.422-1.369.14-.119.17-.42.169-.636 0-1.017-.04-2.034-.073-3.051-.017-.55-.072-1.099-.082-1.649-.012-.728 0-1.457.012-2.187 0-.295.066-.587.106-.929-.59.027-1.106.053-1.629.072-.744.03-1.323-.238-1.697-.909a.864.864 0 0 0-.74-.501c-.59-.067-.925-.783-.696-1.352.23-.569.59-1.119.82-1.704.122-.297.15-.625.078-.939-.151-.526-.196-.995.073-1.494s.508-.998.01-1.506a.362.362 0 0 1-.057-.211c-.08-1.288-.256-2.579-.212-3.862.06-1.813.304-3.619.432-5.43.14-1.976.247-3.955.351-5.933.092-1.747.124-3.497.246-5.242.1-1.467.316-2.934.436-4.392.112-1.404.073-2.824.277-4.213.131-.888-.089-1.303-.916-1.588-.622-.216-.412-.832-.341-1.292.231-1.463.487-2.922.785-4.373.089-.452.354-.867.468-1.317a5.01 5.01 0 0 0 .092-1.089c.014-.544-.01-1.092.01-1.636.022-.626.09-1.25.102-1.876a.933.933 0 0 0-.18-.559 6.538 6.538 0 0 1-1.43-3.787c-.109-1.684-.278-3.365-.325-5.051-.025-.939.126-1.885.24-2.824a13.82 13.82 0 0 1 .336-1.708c.334-1.326 1.412-1.927 2.514-2.492a2.91 2.91 0 0 1 .43-.159c.09-1.453.167-2.828.265-4.203.065-.906.197-1.81.23-2.715.04-1.158 0-2.318.012-3.478.023-1.544.026-3.093.126-4.632.084-1.315.279-2.623.448-3.932.066-.526-.327-.567-.65-.673-.641-.211-1.313-.348-1.918-.63-.184-.084-.318-.567-.265-.823.293-1.37.656-2.727.982-4.093.45-1.873.876-3.753 1.34-5.625.418-1.69.872-3.37 1.31-5.055a.284.284 0 0 0 0-.115c-.197-1.565.77-2.844 1.108-4.278.318-1.347.6-2.703.848-4.067.15-.831.197-1.678.293-2.482l-2.149-.317c-.76-.116-1.53-.196-2.278-.364a1.643 1.643 0 0 1-1.179-1.027 8.368 8.368 0 0 1-.577-3.756c.035-.575 0-1.154 0-1.733v-3.583a1.217 1.217 0 0 1 .117-.544c.452-.857.411-1.788.458-2.71.023-.222.058-.444.104-.663.118-.8.234-1.598.354-2.398.133-.888.261-1.778.41-2.664.114-.68.248-1.357.393-2.032.175-.838.888-1.156 1.572-1.276a38.826 38.826 0 0 0 6.31-1.666c.983-.358 2.043-.656 2.813-1.475.513-.546 1.16-.99 1.572-1.595.605-.874.534-1.856.125-2.842-.408-.986-.74-2.003-1.096-3.01a3.87 3.87 0 0 1-.12-.548c-.736 0-1.064-.364-1.13-1.146a2.96 2.96 0 0 0-.35-1.211 2.083 2.083 0 0 1 .604-2.856c-.565-1.195-.29-2.433-.137-3.668a.945.945 0 0 0 0-.39c-.312-.897.175-1.64.43-2.432.106-.33.073-.728.244-1.012.565-.935 1.479-1.52 2.41-2.012A20.707 20.707 0 0 1 89.9.397c1.899-.651 3.747-.524 5.5.552.35.215.754.342 1.095.567.639.415.786 1.101.888 1.79.004.147.044.29.116.418 1.167 1.37 1.375 2.97 1.214 4.677-.055.587-.047 1.174-.053 1.777a.564.564 0 0 0 .118.37c.811.803.397 1.805.418 2.716.014.546-.18 1.104-.33 1.644-.182.65-.666 1.075-1.206 1.455a1.082 1.082 0 0 0-.46.571 27.113 27.113 0 0 0-.496 3.288 3.089 3.089 0 0 0 .958 2.559c.07.064.127.14.17.225a2.94 2.94 0 0 0 1.374 1.348c.756.39 1.412.978 2.161 1.398.426.243.941.333 1.42.477.196.06.428.038.603.131 1.214.656 2.571.67 3.879.922 1.375.266 1.986.698 2.457 2.421.291 1.06.575 2.118.853 3.177.049.162.074.33.072.499-.064 1.381.354 2.68.625 4.008.12.724.202 1.453.246 2.185.097.672.145 1.351.143 2.03a20.452 20.452 0 0 1-.356 3.072c-.168.835-.516 1.635-.805 2.443-.081.169-.191.323-.324.456-.279.362-.581.706-.905 1.028-.244.235-.54.408-.865.505-1.072.272-2.16.196-3.25.047-.012 0-.03.022-.083.066-.145 2.096.106 4.196.503 6.278.267 1.396.644 2.77.937 4.162.177.843.263 1.706.44 2.543.294 1.41.619 2.815.95 4.218.59 2.511 1.24 5.013 1.798 7.534.163.73.141 1.509.129 2.262 0 .489-.332.804-.807.978-.786.287-.786.334-.689 1.174.139 1.296.263 2.597.349 3.898.131 2.026.247 4.055.348 6.085.065 1.391.055 2.786.126 4.175.086 1.666.233 3.325.336 4.994.031.532 0 1.068 0 1.813.982-.51 1.844-.931 2.675-1.416.406-.27.789-.571 1.147-.902.073-.06.175-.131.196-.21a4.087 4.087 0 0 1 .717-1.615c.283-.407-.196-1.307-.691-1.565-.122-.063-.279-.145-.322-.254a37.136 37.136 0 0 1-.664-1.907c-.045-.135-.071-.378 0-.435.664-.522.351-1.295.516-1.936.46-1.782 1.222-2.993 3.212-3.197 1.571-.162 3.023.417 3.667 2.135.247.655.196 1.418.301 2.13.056.42.223.841.196 1.252a2.963 2.963 0 0 1-.393 1.271c-.228.38-.316.869-.925 1.043-.305.088-.414.76-.666 1.132-.346.505.061.806.216 1.211.55 1.436 1.752 2.119 3.013 2.768a.605.605 0 0 1 .267.419c.04.336.012.68.073 1.033a3.632 3.632 0 0 1 .507-1.945c.681-1.185 2.587-2.222 4.109-1.885a5.375 5.375 0 0 1 2.235.995c.806.634 1.041 1.536 1.161 2.467.065.501-.033 1.021-.047 1.533.002.104.03.206.082.296.501.89.285 1.956-.347 2.758-.786.992-1.161 2.682.314 3.423 1.017.513 1.929 1.223 3.088 1.483.501.113.931.53 1.398.8a5.6 5.6 0 0 0 .813.432c.352.133.808.783.837 1.27.073 1.173.073 2.359.263 3.521a4.973 4.973 0 0 1-.013 1.682c-.042.248.208.538.196.802-.043 1.174-.132 2.347-.21 3.521-.032.471-.1.941-.12 1.414-.061 1.487-.878 2.615-1.738 3.732a.81.81 0 0 0-.197.558c.317 1.481.611 2.971 1.02 4.428.438 1.565.97 3.107 1.506 4.642.177.507.102.857-.347 1.106-.45.248-.961.436-1.405.712a.953.953 0 0 0-.444.61c-.11 1.862-.216 3.716-.233 5.59-.012 1.135.155 2.269.21 3.406.059 1.24.116 2.48.112 3.717 0 1.854-.095 3.716-.095 5.563-.002.736.075 1.471.23 2.191.197.884.049 1.727-.133 2.574-.211.978.214 1.901.231 2.858 0 .477-.078.954-.1 1.434-.047 1.064-.137 2.132-.098 3.194.022.563-.075 1.017-.45 1.414-.402.427-.471.898-.485 1.489-.014.651.32.806.739 1.093a1.377 1.377 0 0 1 .491.943c.057 1.225-.059 1.185-1.071 1.651-.243.111-.408.379-.636.538a3.624 3.624 0 0 1-.835.473 5.21 5.21 0 0 1-1.393.335 2.394 2.394 0 0 1-1.202-.249c-.177-.092-.32-.563-.239-.77.247-.644-.173-1.237-.044-1.855 0-.043-.084-.111-.072-.146.34-.879-.381-1.565-.411-2.367-.025-.699.126-1.407.244-2.103.082-.497.249-.978.361-1.471a.677.677 0 0 0-.023-.391c-.277-.617-.574-1.225-.892-1.894h-.731c-.982.031-1.516-.518-1.819-1.391-.114-.324-.231-.684-.746-.547s-.654.424-.642.901c0 .278-.097.558-.097.836 0 .526-.29.512-.656.391l-.157-2.435-.695-.081-1.086-7.069h-.197c-.043.211-.086.421-.127.63-.22 1.119-.462 2.236-.649 3.36-.053.325.083.675.075 1.014-.012.565-.059 1.13-.112 1.696-.1 1.058-.206 2.116-.326 3.174-.055.484-.177.961-.22 1.446-.024.256-.037.587.1.773.643.852.258 1.688.034 2.529-.082.27-.19.533-.322.782a2.625 2.625 0 0 0-.325 1.542c.087.868-.094 1.76-.21 2.648-.019.147-.257.323-.43.391-.858.308-1.836.515-2.601.083a17.938 17.938 0 0 1-2.317-1.509c-.629-.494-.462-1.201.21-1.666.672-.466.841-.959.589-1.737-.173-.519-.196-.978.254-1.399.345-.328.392-.747.072-1.173-.44-.587-.393-1.284-.361-1.957.047-1.081.112-2.163.171-3.247h-.181c0 .392.014.804 0 1.205a17.82 17.82 0 0 1-.13 1.585.44.44 0 0 1-.334.272c-.114 0-.328-.196-.32-.282.051-.71-.267-.606-.756-.434-.627.221-1.283.358-1.903-.096-.542-.391-.745-1.174-.179-1.643.825-.695.497-1.444.352-2.189-.374-1.921-.875-3.818-.888-5.796a7.291 7.291 0 0 0-.157-1.019 4.772 4.772 0 0 0-.918.01 2.545 2.545 0 0 1-1.324-.142 2.52 2.52 0 0 1-1.068-.792 1.029 1.029 0 0 0-.633-.348c-.661-.08-1.335-.058-1.993-.152-.181-.028-.377-.3-.468-.503-.09-.203-.043-.448-.055-.675.114.254.226.509.34.761.132-.412.216-.837.25-1.267.011-.1.017-.196.025-.298-.112.031-.285.03-.322.1a5.95 5.95 0 0 0-.279.722c.012-.225-.067-.542.051-.657.438-.427.267-.881.218-1.37-.088-.876-.1-1.76-.141-2.601-.153-.157-.45-.317-.503-.536-.468-1.956-.89-3.913-1.334-5.869-.21-.931-.455-1.854-.654-2.787-.334-1.577-.644-3.155-.96-4.736-.216-1.089-.444-2.177-.633-3.27-.161-.945-.263-1.902-.412-2.849-.116-.741-.29-1.473-.393-2.214a86.35 86.35 0 0 1-.517-3.912c-.233-2.279-.43-4.552-1.068-6.778-.366-1.268-.882-2.514-.82-3.912.03-.665-.221-1.369-.467-2.013-.62-1.624-.848-3.325-1.237-5.01a281.227 281.227 0 0 0-1.499-6.128c-.196-.738-.491-1.444-.686-2.18-.33-1.247-.526-2.542-.944-3.751-.46-1.34-.487-2.739-.796-4.092a4.625 4.625 0 0 0-.169-.464c-.51 1.89-.982 3.61-1.441 5.329l-1.047 3.841c-.042.157-.099.31-.148.464-.196.612-.063.998.613 1.256a1.21 1.21 0 0 1 .821 1.28c-.021.281.173.572.208.866.132 1.066.275 2.132.344 3.202.11 1.663.167 3.325.236 4.992.001.24-.011.479-.037.718.628.371 1.225.714 1.809 1.079.156.098.286.233.379.392.363.649.73 1.299 1.04 1.973.172.337.26.71.258 1.088-.045.644.196 1.185.428 1.737.281.657.22 1.301.01 1.956-.12.356-.179.73-.177 1.105.045 1.677-.074 3.326-.573 4.941a1.986 1.986 0 0 1-1.112 1.331c-.261.119-.318.268-.234.586.491 1.806.996 3.613 1.4 5.44.394 1.737.649 3.502.983 5.254.106.572.237 1.137.393 1.845-.664.335-1.348.659-2.01 1.025a.66.66 0 0 0-.328.472c.043 1.077.153 2.151.197 3.233.06 1.369.084 2.725.125 4.088.042 1.364.087 2.707.124 4.061 0 .276-.016.552 0 .828.035 1.263.077 2.529.114 3.792a.648.648 0 0 1 0 .284c-.381.712-.226 1.369.1 2.062.197.442.224.978.25 1.49.096 1.988.088 3.981.263 5.961.163 1.83.54 3.644.766 5.477.196 1.539.298 3.088.432 4.512.56.278 1.228.421 1.609.83 1.424 1.539.958 2.326-.578 3.298-.58.368-1.178.71-1.767 1.066-.05.029-.11.068-.126.115-.285.882-1.002.912-1.748.892-.04 0-.079.067-.118.102l-.261-.016zm5.654-168.968l-.168 2c.246-.261.423-.58.512-.926.089-.386.14-.779.155-1.174a3.553 3.553 0 0 0-.11-.686l-.26.408a2.564 2.564 0 0 0-.026-.739c-.051-.156-.267-.262-.41-.391-.125.145-.394.354-.355.426.2.374.42.735.663 1.082zM73.92 43.386c.126-.107.253-.209.373-.32.648-.605 1.336-1.174 1.93-1.827.787-.861 1.663-.861 2.682-.519 1.188.401 2.414.695 3.612 1.066 1.198.372 2.341.667 3.579.513.106-.014.27-.102.289-.182.251-1.037.475-2.08.723-3.116.08-.339-.081-.429-.368-.466a5.061 5.061 0 0 1-1.163-.195c-1.245-.484-2.469-1.018-3.704-1.528-.807-.333-1.609-.683-2.428-.978-.65-.235-1.326-.407-1.992-.597-.216-.062-.463-.18-.657-.127-.83.208-1.647.465-2.446.77-.739.3-.717.357-.094.8.02.015 0 .075 0 .017-.627.811-1.202 1.564-1.793 2.316-.264.33-.44.67-.042.978.22.172.53.23.933.39.08.52.548.373 1.043.23.529-.155 1.069-.272 1.605-.405l.04.156c-.889.869-2.097 1.514-2.122 3.024zm15.3-8.41l.168-.034c.085-.841.132-1.686.26-2.52.239-1.564.547-3.13.775-4.71.05-.35-.135-.73-.186-1.097-.042-.288-.148-.626-.044-.859.3-.583.632-1.15.994-1.696-1.267-.978-3.143-.833-4.576-1.983-.124.63-.33 1.13-.293 1.611.053.718.267 1.425.428 2.133.289 1.257.57 2.515.888 3.765.299 1.174.632 2.347.972 3.521.18.626.407 1.244.613 1.87v-.002zm18.3 1.151c.229-.059.452-.137.667-.234a1.29 1.29 0 0 0 .275-.31c-.112-.087-.214-.232-.336-.254-1.455-.258-2.912-.276-4.234.454a25.024 25.024 0 0 0-3.004 1.99c-.459.346-.772.885-1.243 1.449.786 0 1.387-.014 1.982 0a7.1 7.1 0 0 1 1.473.127c.354.086.619.149.908-.127a.786.786 0 0 1 .491-.196c1.149.012 2.298.059 3.447.065.161 0 .322-.172.487-.256.203-.125.422-.224.65-.294.275-.058.589.026.847-.07.167-.065.392-.419.351-.507-.165-.303.112-.782-.426-.945-.744-.227-1.463-.55-2.335-.89v-.002zm18.316 107.426c-.242 1.095-.786 2.112-.428 3.294.219.703.382 1.422.485 2.152.196 1.404.231 2.836.504 4.223.435 2.204 1.038 4.376 1.517 6.57.269 1.233.811 2.361 1.2 3.451a6.118 6.118 0 0 0-.041-2.696c-.197-.886-.428-1.809-.358-2.693.12-1.475-.163-2.876-.393-4.304-.253-1.635-.455-3.278-.693-4.917-.084-.587-.124-1.211-.336-1.761-.416-1.111-.947-2.179-1.457-3.317v-.002zm-17.857-47.209l.187-.096c-.087-1.246-.187-2.49-.258-3.738a26.069 26.069 0 0 1-.08-2.738c.027-.57.145-1.115-.159-1.651a1.154 1.154 0 0 1-.116-.542c0-.675.022-1.35.027-2.023v-1.662c.014-.587.197-1.221.04-1.761a8.813 8.813 0 0 1-.114-4.634l-1.65.184.061 1.328c.041.853.094 1.708.122 2.563.021.598-.016 1.199.017 1.795.059 1.056-.279 2.129.187 3.175.12.274.017.648.017.978a7.98 7.98 0 0 0 0 .978c.11.841.254 1.68.405 2.67l-.903-.82a3.17 3.17 0 0 0 0 .69c.133.6.3 1.192.5 1.773a71.5 71.5 0 0 0 1.265 3.116c.093.167.313.278.452.415zm-11.459-74.67l-4.57 2.36c.217.308.422.719.734 1.014.923.872.711 1.316.167 2.042a1.562 1.562 0 0 0-.32 1.174c.07.747.174 1.494.294 2.238.08.498.213.987.336 1.564l4.015-9.156-.656-1.236zm11.196 116.828c.444.54.941.724 1.23.489.414-.336.361-.71.115-1.156a6.572 6.572 0 0 1-.589-1.457c-.43-1.626-.825-3.261-1.222-4.891-.225-.925-.573-1.828-.094-2.81a1.443 1.443 0 0 0-.092-1.151 4.975 4.975 0 0 1-.648-1.94c-.12-1.156-.615-2.238-.635-3.429-.023-1.281-.196-2.561-.332-3.838-.059-.556-.182-1.107-.279-1.659h-.147a3.815 3.815 0 0 0-.029.534c.11 1.53.21 3.06.347 4.587.138 1.528.297 3.105.481 4.654a1.7 1.7 0 0 0 .35.931c.479.511.33 1.037.197 1.59-.069.288-.238.599-.181.861.446 2.066.915 4.127 1.428 6.175.196.812.536 1.591.785 2.293l-.685.217zM86.199 8.222c.34.026.682.026 1.022 0 1.233-.222 2.457-.642 3.706-.061a.458.458 0 0 0 .37-.086c.842-.607 1.804-.348 2.712-.329.71.016.705.106.833-.632.034-.104.082-.203.141-.295.703-1.504.393-2.347-1.016-3.222a1.153 1.153 0 0 0-.404-.076c-.018.174-.047.348-.051.522 0 .337.108.73-.03.996-.196.372-.182.597.067.915.096.126.067.532-.035.587-.491.298-.982.677-1.634.391a.775.775 0 0 0-.393.026c-.925.158-1.84.391-2.797.172-1.246-.278-1.684-.082-2.49 1.092zm16.37 48.843c.524-.043.982-.088 1.426-.117.503-.033.454-.27.338-.66a11.068 11.068 0 0 1-.362-1.81c-.08-.64-.027-1.3-.153-1.925a1.156 1.156 0 0 0-.631-.763c-.589-.196-1.211-.215-1.822-.307-.144 1.093-.093 1.173.63 1.794.171.188.287.42.336.669.143.5.197 1.036.377 1.517.134.345.43.626.713 1.018-.253-.063-.379-.088-.501-.126-.616-.185-.766-.138-.801.47-.022.51.044 1.02.196 1.508.141.37.369.703.664.968.079.078.417-.105.635-.17-.132-.12-.267-.233-.393-.358-.167-.164-.418-.31-.472-.51a7.754 7.754 0 0 1-.18-1.194v-.004zm-2.986-29.928c.21 0 .407.06.501-.012.234-.172.434-.386.589-.631.04-.063-.157-.331-.296-.433-.902-.659-1.817-1.299-2.764-1.97 0 0-.116.079-.106.133.126.638.255 1.274.416 1.902.044.16.222.277.307.434.251.47.465.959.738 1.416.154.255.236.391.051.728-.86 1.54-1.657 3.112-2.463 4.68a1.44 1.44 0 0 0-.06.486l.168.035c.105-.152.218-.3.313-.458.756-1.248 1.506-2.5 2.266-3.744.224-.365.49-.704.715-1.066.372-.57-.045-.997-.369-1.488l-.006-.012zm7.201 2.574l.196.016c.075.51.118 1.03.236 1.534.134.565.251 1.122.868 1.47.364.196.578.675.845 1.035.196.253.351.52.524.783l.197-.08a5.928 5.928 0 0 0-.1-.808c-.144-.542-.342-1.068-.488-1.61-.235-.884-.428-1.78-.677-2.659a.872.872 0 0 0-.64-.64.88.88 0 0 0-.867.267c-1.218 1.228-1.693 2.854-2.31 4.395-.127.317-.066.71-.092 1.068l.096-.011 2.212-4.76zm9.501 122.138a6.765 6.765 0 0 0 .505-3.467c-.077-.882-.167-1.76-.23-2.65-.018-.253.065-.511.061-.767-.01-.761-.091-1.524-.049-2.283.074-1.347.196-2.691.337-4.035.046-.456-.11-.708-.614-.794-.094.213-.16.437-.197.667-.071 1.576-.438 3.129-.249 4.73.072.627-.012 1.271.025 1.905.026.444.185.88.197 1.322.031 1.275 0 2.543.031 3.826.006.472.104.941.183 1.546zm-8.603-111.07a7.197 7.197 0 0 1 1.479 4.542c-.865-1.048-.865-1.048-1.281-.923.011.072.028.143.049.213.32.874.768 1.73.32 2.701-.035.075.093.31.179.33a.591.591 0 0 0 .481-.075c.201-.223.375-.469.519-.732.416-.685.874-1.348.717-2.232-.036-.196.159-.44.229-.667.132-.43.252-.867.376-1.3l-.161-.085-.224.088c-.696-.68-1.362-1.324-2.014-1.981-.277-.28-.463-.16-.669.12zm-.902-12.277l-.029-.236c-.69-.22-1.375-.464-2.071-.652-.827-.223-1.677-.37-2.5-.606-.509-.147-1.008-.424-1.293.272-.127.313-.316.733-.196.978a1.005 1.005 0 0 0 .982.642c.246-.014.521.217.752.379.132.126.245.271.334.43.409-.238.271-.422.065-.655-.27-.311-.521-.638-.752-.978-.041-.059 0-.196.047-.282a.196.196 0 0 1 .196-.015c.25.22.558.416.713.694.279.503.621.573 1.118.391.307-.089.621-.154.939-.195-.224.276-.365.381-.393.514a.514.514 0 0 0 .083.41.357.357 0 0 0 .347.026c.556-.36 1.104-.743 1.658-1.117zM93.596 72.415l-.135.088c-.001.106.015.212.047.313.336.732.71 1.446 1.12 2.14.407.68.992 1.237 1.694 1.61a4.39 4.39 0 0 0 2.285.51c1.231-.023 2.461-.095 3.691-.129.646-.015 1.294.043 1.936 0 .374-.025.737-.184 1.214-.313-.196-.162-.237-.228-.283-.23-.982-.05-1.948-.124-2.924-.124-1.194 0-2.39.057-3.587.108-1.754.074-2.915-.773-3.742-2.258-.355-.623-.874-1.148-1.316-1.715zm14.319 72.002l-1.53-.991c.426 1.455 1.599 1.649 2.638 1.5.644-.092.786-.614.393-1.058-.589-.646-1.179-1.284-1.732-1.966-.48-.601-.884-1.26-1.334-1.884-.075-.106-.283-.25-.31-.229-.136.11-.336.278-.327.407.04.462.042.978.268 1.369.603 1.006 1.318 1.956 1.934 2.852zM99.196 39.94c.185.367.261.716.476.921 1.276 1.223 2.241 2.77 3.808 3.685.403.237.786.648 1.434.466-.275-.42-.503-.782-.739-1.125-.817-1.2-1.754-2.306-2.946-3.145-.567-.403-1.165-.908-2.033-.802zM91.07 9.796c.071-.653-.076-.857-.518-.821-.442.035-.64.35-.572.939.02.092.03.187.028.281a11.294 11.294 0 0 1-.299 1.673c-.065.209-.444.305-.628.5a.812.812 0 0 0-.222.529c0 .082.292.16.457.223.26.072.513.165.758.275.295.165.505.249.802-.04.175-.17.52-.16.77-.27.183-.085.442-.212.475-.363.041-.195-.069-.575-.196-.61-.52-.149-.67-.471-.692-.962-.013-.454-.104-.902-.163-1.354zm2.118 2.058c0 .057.02.113.027.172.197.059.383.116.572.182.495.174 1.33.978 1.253 1.268-.12.447.092.704.42.92.328.218.393.511.264.875-.13.364-.222.742-.346 1.174.703-.477 1.2-1.956.874-2.77-.342-.843-.03-1.631.196-2.369.173-.587.116-.872-.361-1.209-.12.174-.227.355-.322.542-.267.609-1.33 1.174-1.998 1.094a1.743 1.743 0 0 0-.58.121zm-2.86 49.904l-.212.014c-.328 1.532-.656 3.065-1 4.66h2.654l-1.442-4.674zm-13.72 15.095l.016.13c.115.044.235.075.357.09 1.126 0 2.251.025 3.377 0 .677-.02 1.353-.15 2.03-.178 1.163-.05 2.106-.605 3.04-1.211.838-.546 1.25-1.37 1.57-2.28-.19.059-.36.17-.487.324-.599.759-1.2 1.476-2.1 1.956-1.068.563-2.213.577-3.338.694-1.083.112-2.18.065-3.267.145-.4.02-.795.211-1.198.33zm4.6 30.06c1.98-.299 3.928-.139 5.944.196-.72-1.46-1.931-1.591-3.224-1.509-1.062.075-2.017.397-2.718 1.313h-.002zm-5.602-74.817l-.075.105c.053.069.095.165.165.196.539.293 1.1.55 1.621.87.405.261.789.554 1.147.875.336.285.64.608 1.059 1.011.043-.285.084-.371.059-.43a165.677 165.677 0 0 0-1.499-3.37c-.06-.136-.257-.208-.393-.312-.265-.195-.59-.313-.774 0-.096.177.026.525.142.748.2.313.426.608.675.884l-2.127-.577zM85.99 10.939c-.375-.022-.552.342-.515.782.073.804.295 1.518.874 2.128.305.321.63.278.723 0 .305-.884 1.075-1.265 1.719-1.793.1-.121.177-.258.23-.405a1.833 1.833 0 0 0-.483.07 1.755 1.755 0 0 1-2.018-.41 2.595 2.595 0 0 0-.53-.373zm4.152 47.873c.057-.264.128-.39.102-.512-.125-.564-.294-1.117-.416-1.682-.38-1.747-.717-3.502-.786-5.3a.87.87 0 0 0-.3-.547c-.093-.078-.428-.051-.468.025-.09.194-.12.411-.084.622.236 1.352.438 2.711.762 4.041.275 1.092.381 2.252 1.19 3.353zm14.632 2.5l.059-.256c-.419-.221-.816-.544-1.263-.642-.863-.195-1.768-.195-2.632-.39-.745-.16-1.503-.36-1.864-1.194a9.118 9.118 0 0 0-.725-1.174c-.197.391.035 1.6.392 1.956.596.582 1.351.974 2.171 1.125 1.149.246 2.386.033 3.467.655.086.061.261-.045.395-.08zm18.638 45.511c.941-.02 1.913-.153 2.854-.029.941.123 1.891.5 2.75.743-.786-1.328-1.876-2.015-3.318-1.921-.948.061-1.824.37-2.286 1.207zm-16.242-31.065v.215c.267.059.589.243.786.15.349-.163.917-.128.96-.703.032-.305.026-.611-.018-.914a22.532 22.532 0 0 0-.453-2.114c-.075-.268-.102-.734-.684-.56 0 .607.039 1.223-.012 1.83-.057.727.393 1.6-.579 2.096zm-5.288 21.79l.228-.03c-.039-.783-.016-1.575-.13-2.348a70.674 70.674 0 0 0-.819-4.596c-.096-.44 0-1.045-.785-1.409.393 2.915.96 5.645 1.506 8.382zM88.087 36.613l.214-.119c-.656-1.395-1.271-2.81-1.978-4.178-.448-.863-1.031-1.655-1.552-2.48a5.603 5.603 0 0 0-.454-.71c-.098-.112-.298-.134-.453-.196-.004.14.018.28.064.412.417.67.9 1.303 1.275 1.994.74 1.37 1.416 2.768 2.141 4.143.21.397.493.757.743 1.134zm18.07 112.205l-.243.039c-.059.221-.197.459-.159.655.141.556.315 1.103.52 1.639.061.166.179.391.311.433.418.093.441.391.514.71a.47.47 0 0 0 .367.264c.66-.096.786-.423.433-.996a430.28 430.28 0 0 0-1.529-2.424c-.076-.109-.151-.215-.221-.32h.007zm-23.46-54.345c-1.619-.753-3.632-.481-4.39.605h3.88l.51-.605zm-.035-38.195c-.12.516-.226.931-.309 1.35-.124.63-.404 1.132-1.058 1.34-.32.103-.68.13-.965.29a9.758 9.758 0 0 0-1.208.864c-.055.04-.027.186-.04.284.112.013.224.008.333-.016.41-.176.805-.391 1.217-.558.413-.166.823-.268 1.203-.463 1-.523 1.451-2.074.825-3.09h.002zm-4.09-14.72l-.096-.209c-.43.152-.85.334-1.255.544-1.236.747-1.308 2.185-2.014 3.251l.218.162 3.147-3.748zM94.38 15.891c.393-1.308-.332-1.97-1.074-2.613-.242-.211-.568-.137-.637.149-.096.412-.66.767-.212 1.265.02.024.069.026.106.032.383.08.772.142 1.15.242.211.057.52.055.392.456-.03.094.141.252.275.47zM96.99 4.57c-.483.54-.314 1.03-.273 1.462.085.862.403 1.692.323 2.586-.032.336.088.686.145 1.062.613-.587.874-1.438.556-2a4.273 4.273 0 0 1-.491-2.225c.002-.253-.142-.505-.26-.885zm6.606 35.826c.359.343.646.63.951.898.196.172.446.29.624.476.535.557 1.047 1.136 1.572 1.707-.093-1.122-.841-1.848-1.416-2.662-.338-.475-1.183-.675-1.731-.419zm6.403 107.185l-.068-.195a1.438 1.438 0 0 0-.27-.028c-1.202.114-2.404.223-3.604.36-.131.014-.245.18-.367.276.163.133.332.391.491.376a21.9 21.9 0 0 0 2.644-.239c.416-.068.781-.36 1.174-.55zM89.285 20.195c.298.139.456.272.617.276 1.135.021 2.276.139 3.368-.349.552-.244.93-.794.77-1.118-.522.26-1.021.643-1.571.753-.902.18-1.84.182-2.762.264a2.262 2.262 0 0 0-.422.174zm-3.438-16.04h-.265c-.225 1.27-.465 2.543-.665 3.814-.026.16.145.354.25.587.492-.599.59-1.238.663-1.888.073-.65-.22-1.388.196-2.044.06-.076-.112-.305-.186-.467l.007-.002zm-2.111 8.106l-.167-.121c-.096.136-.257.266-.275.41-.06.483.012.953.458 1.246.092.06.287-.035.532-.074.079.391.175.849.275 1.332.416-.612.413-.61.151-1.174a2.507 2.507 0 0 1-.153-.477c-.13-.518-.25-1.037-.373-1.553l-.187-.023L83.651 13a2.392 2.392 0 0 1-.015-.367c.023-.126.067-.249.1-.372zm8.263 69.733h.152c.347-2.091.137-4.182.059-6.271H92v6.271zm3.554-78.678l-.106.115h.49c.177-1.309-.404-1.907-2.074-2.085.121.215.258.42.409.616.416.458.852.902 1.28 1.354zm4.643 84.771l.302.26c.061-.145.094-.301.099-.46-.218-1.241-.456-2.478-.688-3.716l-.245.041c.167 1.293-.057 2.63.532 3.875zM89.743 17.611c.607.892 1.899.542 2.537-.024-.416-.48-2.094-.48-2.537.024zm7.522 22.419l.026-.266c-.762-.255-1.52-.523-2.292-.75a.465.465 0 0 0-.41.196c-.042.13.058.425.154.452.666.196 1.346.334 2.027.464.17-.002.338-.036.495-.1v.004zM92.263 2.144c-.529-.908-2.646-1.101-3.143-.495l3.143.495zm-4.5 39.592l.196.07c.117-.131.213-.28.285-.44.14-.523.247-1.053.357-1.583.063-.235.096-.477.099-.72 0-.101-.177-.195-.273-.293-.097.098-.244.18-.278.295-.09.325-.155.656-.196.99-.078.56-.13 1.121-.19 1.68zm2.247 27.242c.306.154.63.273.962.356.435.06.876.064 1.312.014.089-.01.147-.32.218-.493a2.463 2.463 0 0 0-.432-.123 7.806 7.806 0 0 0-.77-.034c-.463-.001-.978-.183-1.29.28zM87.105 3.74c.882.072 1.675-.086 2.32-.76-.64-.46-1.845-.054-2.32.76zM88 16.897l.179-.033c-.07-.327-.16-.652-.206-.979a5.1 5.1 0 0 1-.087-1.075c.055-.377.14-.748.254-1.111-1.057 1.275-1.063 1.787-.14 3.198zm-5.095 9.908l.12.181c.526.122 1.015.13 1.33-.46.086-.162.196-.314.292-.47-.23-.056-.465-.17-.685-.145-.22.025-.37.195-.552.314.22.25.02.294-.169.368-.118.06-.23.131-.336.212zm8.317 17.149c-.183.184-.5.356-.517.553-.033.356.16.763.603.685a.908.908 0 0 0 .607-.57c.063-.316-.14-.631-.693-.676v.008zm-13.426-.534c.613.101.868-.15 1.043-.654.104-.297.424-.544.694-.753.222-.172.514-.254.882-.426-.21-.141-.362-.282-.393-.258-.847.563-1.658 1.17-2.226 2.083v.008zm5.137 38.312l-.14-.047-.17 3.085.588.237c-.094-1.121-.186-2.197-.278-3.275zm7.15-66.832c-.293-.433-1.11-.914-1.272-.722-.208.252-.267.624-.424 1.033l1.695-.311zm17.377 123.575c-.218-.214-.35-.431-.438-.415a7.238 7.238 0 0 0-1.387.391c-.11.045-.167.376-.136.556.02.119.24.195.37.305.109-.127.205-.265.284-.413.14-.348.297-.61.745-.424.108.037.251 0 .562 0zm1.463 16.627l.143-.11a4.774 4.774 0 0 0-.392-.554c-.136-.15-.464-.269-.456-.391.059-.796-.652-.71-1.065-1.058-.143.587.263.622.589.755-.037.855.784.9 1.181 1.354v.004zM94.191 20.272c1.067-.666 1.749-1.427 1.752-2.61-.33.422-.609.882-.832 1.369-.195.462-.902.546-.927 1.236l.007.004zm-.025-17.94c-.526-.66-1.237-.99-1.839-.879.366.673 1.381 1.178 1.831.875l.008.004zm-6.507 1.76c-.702-.049-1.106.644-.965 1.659.104 0 .295.033.31 0 .22-.552.425-1.095.647-1.673l.008.014zm1.003 63.975l-.324-.102a679.4 679.4 0 0 0-.723 2.46l.167.053c.788-.653.428-1.67.872-2.425l.008.014zm8.696-28l1.512.978c0-.327.08-.587-.016-.714a1.116 1.116 0 0 0-1.496-.264zm-3.218-2.913c.59-.096 1.527-1.273 1.597-1.936-.758.506-1.11 1.189-1.597 1.936zM91.027.886l2.335.52c-.386-.665-1.357-.892-2.335-.52zm1.915 47.142c-.292-.238-.52-.53-.624-.49-.266.097-.476.342-.707.53.18.154.365.438.538.43.23-.004.448-.243.793-.462v-.008zm-17.11-13.56c-.674-.8-1.375-1.007-1.793-.586.5.367 1.015.645 1.793.594v-.008zm33.971 5.11c.055.434.078.841.165 1.236.067.297.298.364.505.13.288-.318-.122-1.25-.67-1.366zm-22.75-20.88c.158-.901-.333-1.441-.785-2.056-.124.54.183 1.36.785 2.056zm8.018 29.178c.248.21.446.436.487.41.265-.182.517-.382.755-.598-.197-.137-.405-.407-.56-.376-.224.045-.399.311-.682.564zm-1.426.569c.393-.098.855-.123.786-.675-.016-.137-.332-.378-.428-.342-.452.16-.636.49-.362 1.017h.004zm10.988 30.89c-.532.45-.342 1.262.47 1.716l-.47-1.715zM91.669 56.714l-.131.141c.106.143.196.391.324.409.314.014.628-.013.935-.082.037 0 .098-.196.065-.243a.475.475 0 0 0-.29-.213c-.307-.03-.612-.012-.912-.012h.01zm13.247-26.52l-.024-.259c-.237-.02-.654-.117-.685-.047-.122.28-.238.84-.149.884.589.3.442-.51.848-.579h.01zm.322 112.755c.344 1.055.752 1.602 1.179 1.581-.36-.538-.409-1.26-1.189-1.581h.01zM89.572 21.12l-.036.176c.743.5 1.409.605 1.974.272l-1.938-.448zm-6.01 7.26c-.633-.928-.84-1.026-1.258-.566.454.111.517.9 1.26.565h-.003zm5.892 16.503c.326-.266.933-.276.71-.863-.044-.12-.457-.102-.765-.158.021.418.035.7.053 1.02h.002zm-1.65 25.914l-.23-.054c-.207.674-.414 1.35-.62 2.028l.172.05c.576-.564.34-1.386.678-2.024zm19.689-.813c-.169.268-.32.414-.291.48.132.258.28.506.444.744.116-.096.348-.233.33-.28a8.769 8.769 0 0 0-.477-.944h-.006zm-1.402-21.88c.336.128.681.23 1.033.306.07.011.279-.264.253-.362-.065-.253-.844-.303-1.281.056h-.005zm-8.014-34.102c-1.014.567-1.299 1.074-1.051 1.586.342-.52.697-1.05 1.05-1.586zM92.683 45.55c.059.064.116.129.173.196.234-.106.575-.153.668-.331.092-.178-.106-.46-.177-.697h-.24l-.424.832zM75.88 30.35c.183.373.407.68.886.55.073-.019.155-.265.12-.367-.102-.288-.65-.382-1.006-.182zm.65-.928l.093-.28c-.295-.207-.6-.399-.914-.575-.08-.041-.247.086-.375.137.058.101.129.194.21.278.144.119.302.22.472.299.167.061.34.108.514.14zm30.235 37.567c-.139-.434-.237-.8-.381-1.147-.041-.1-.21-.152-.328-.21-.012 0-.129.128-.116.164.181.416.165.966.825 1.193zM74.092 46.69l.261.239c.279-.327.568-.646.829-.978.055-.07.01-.22.012-.333-.099.022-.232.01-.285.069-.283.32-.548.665-.817 1.003zm-1.051-2.108c.509.043.628-.087.75-.802-.546-.079-.77.162-.75.802zm35.468 54.14l-.431-.715c-.1.11-.304.248-.284.322.09.247.205.483.343.707l.372-.313zm-4.115 14.304l-.226.109c.047.327.082.659.151.978.02.084.149.145.226.216.052-.093.092-.192.116-.296.025-.19.02-.383-.016-.571a1.837 1.837 0 0 0-.251-.436zm3.121-15.935l-.038.196c.222.139.44.285.672.405.018.01.196-.196.187-.258-.051-.196-.13-.452-.269-.509-.14-.057-.366.104-.552.166zm9.347-3.079l.067-.156c-.255-.1-.511-.28-.764-.272-.179 0-.354.258-.528.401l.084.131 1.141-.104zM90.526 22.145a1.003 1.003 0 0 0 1.517-.391l-1.517.391zM106.7 68.876l.602.832c.08-.131.251-.288.221-.391-.076-.274-.18-.622-.823-.44zM72.385 41.233l.135.068.843-.575-.028-.195c-.217 0-.512-.088-.636.021-.173.153-.216.448-.314.68zm1.277 7.077l-.118.066c.084.221.124.484.273.652.07.078.347-.024.53-.043a1.081 1.081 0 0 0-.179-.366 3.213 3.213 0 0 0-.506-.31zM98.324 9.096c-.09.444-.18.886-.306 1.473.565-.462.61-.665.306-1.473zm7.12 36.096c-.51.495-.449.61.59.962l-.59-.962zm-31.916 3.016c.56-.02.615-.373.674-.696.011-.063-.114-.172-.197-.217-.035-.018-.165.068-.196.133-.098.229-.171.467-.281.78zm30.08 61.34c.043.338.082.677.137 1.013 0 .041.116.096.173.09.057-.006.144-.078.144-.123.011-.382-.03-.747-.454-.98zM90.593 58.75c-.26.182-.477.29-.466.334.082.252.181.498.297.736l.169-.038V58.75zm5.278-48.72c.58-.257.59-.373 0-.92v.92zm-3.308 12.236l-.126-.195-1.098.55.114.21 1.11-.565zm17.01 12.463l-.153.035a3.06 3.06 0 0 0-.039.33c-.005.17.001.339.017.507.064.02.131.025.197.014.073-.165.119-.34.137-.52-.004-.122-.104-.245-.159-.366zM178 118.141c-.037.076-.108.153-.11.231-.045 1.291-.041 2.586-.137 3.875a14.437 14.437 0 0 1-.413 2.14c-.196.88-.721 1.649-1 2.474-.314.931-.283 2.001-.267 3.009 0 .43.356.855.542 1.285.456 1.041.393 1.723-.471 2.429-.66.542-.428 1.174-.316 1.72.23 1.19.266 2.409.106 3.611-.159 1.32-.208 2.654-.372 3.975-.117.966-.353 1.919-.514 2.879-.177.865-.305 1.74-.381 2.619-.077 1.483-.036 2.97-.087 4.452-.013.403-.178.8-.277 1.201-.21.859.075 1.673.281 2.479.285 1.113.197 2.216.097 3.325-.077.916-.089 1.835-.154 2.752a51.792 51.792 0 0 1-.247 2.768 342.652 342.652 0 0 1-.786 5.914c-.133.927-.338 1.842-.518 2.764a1.711 1.711 0 0 0 .351 1.525c.413.513.733 1.096.646 1.819-.066.55-.278.734-.811.806-.901.126-1.738-.092-2.602-.363a.938.938 0 0 1-.061.225c-.146.232-.301.459-.452.688-.079-.227-.23-.454-.226-.677.016-.706-.073-1.312-.562-1.919-.489-.606-.455-1.437-.023-2.163.196-.339.601-.653.047-1.037a.523.523 0 0 1 .134-.373c.343-.237.63-.392.349-.928-.141-.27.126-.725.134-1.099a16.234 16.234 0 0 0-.059-1.778c-.104-1.213-.275-2.42-.344-3.633-.049-.841.031-1.69.047-2.543.016-.852.041-1.684.028-2.525a76.416 76.416 0 0 0-.124-3.495c-.022-.335-.224-.654-.31-.988a2.444 2.444 0 0 1-.11-.81c.066-.72.467-1.448-.134-2.128a.613.613 0 0 1-.11-.368c-.047-1.649 0-3.306-.145-4.947a39.976 39.976 0 0 0-.786-4.802 6.972 6.972 0 0 0-.456 1.054c-.324 1.291-.996 2.484-1.068 3.848a2.336 2.336 0 0 1-.256.796 5.533 5.533 0 0 0-.43 2.603c.033.284-.009.57-.123.832-.525.95-.23 1.923-.079 2.865a7.239 7.239 0 0 1-.332 3.562 1.728 1.728 0 0 0 .238 1.685c.424.587.072 1.216-.095 1.784-.137.463-.039.657.348.894a1.81 1.81 0 0 1 .853 1.904 1.81 1.81 0 0 1-.287.678c-.187.25-.59.33-.847.542-.562.453-1.027 1.046-1.858 1.048a.661.661 0 0 0-.454.338c-.383.752-.75 1.483-.489 2.406a1.598 1.598 0 0 1-.287 1.28c-.573.653-.322 1.324-.104 1.897.179.468.187.816-.037 1.195-.291.493-.625.961-.931 1.444a.785.785 0 0 0-.155.37c0 .391 0 .802.031 1.199.034.457-.09.782-.748.829-.063-.794-.126-1.598-.197-2.435-.267.24-.726.465-.876.819-.589 1.422-1.718 1.276-2.869 1.063a15.102 15.102 0 0 1-2.008-.531c-.524-.172-.646-.571-.357-.94.049-.063.149-.149.196-.135.829.195 1.269-.464 1.796-.851.418-.305.711-.783 1.033-1.213.084-.112.063-.295.108-.442.033-.201.105-.393.214-.566.463-.53.734-1.06.495-1.811-.067-.215.234-.63.469-.835.426-.372.352-.857.354-1.285 0-.879-.159-1.761-.146-2.637.018-1.201.116-2.404.217-3.605.133-1.581.304-3.159.447-4.742.03-.323-.021-.655.018-.978.017-.335.099-.664.244-.968.447-.74.508-1.504.357-2.33-.063-.34 0-.704-.035-1.054-.104-1.28-.228-2.559-.33-3.838-.038-.468-.018-.939-.065-1.407-.014-.142-.196-.264-.24-.414a245.31 245.31 0 0 1-.87-3.678c-.196-.819-.377-1.641-.571-2.46a1.963 1.963 0 0 0-.161-.536c-.676-1.184-.837-2.508-1.122-3.805-.255-1.174-.631-2.306-1.004-3.638-.18.279-.318.414-.363.586-.32 1.174-.517 2.391-.955 3.521-.666 1.718-.719 3.521-1.027 5.282-.251 1.438-.589 2.86-.88 4.288a1.9 1.9 0 0 0-.031.391c-.014 1.58.027 3.161-.328 4.724-.099.44.082.937.086 1.408 0 .436-.073.875-.079 1.311-.023.398 0 .798.067 1.191a1.87 1.87 0 0 1-.457 1.632c-.458.551-.342 1.081-.089 1.623.254.542.574 1.004.124 1.565-.039.051.025.225.088.305.417.532.263 1.062-.102 1.493a1.362 1.362 0 0 0-.208 1.576c.338.687.075 1.334.053 1.999 0 .09-.077.178-.071.266.053.871.051.836-.856.945-.682.082-1.351.225-1.998-.117-.196-.102-.367-.249-.563-.348a6.28 6.28 0 0 0-1.022-.458c-.495-.145-.852-.425-.982-.91a1.048 1.048 0 0 1 .367-1.173c.847-.669 1.063-1.61 1.03-2.629a.425.425 0 0 0-.177-.313c-.786-.392-.786-1.213-.992-1.874-.393-1.197-.238-2.365.261-3.564.265-.64.224-1.522.028-2.213-.33-1.152-.242-2.251-.118-3.401.157-1.444.322-2.88.196-4.36-.147-1.761.032-3.566.061-5.352 0-.691-.016-1.37 0-2.07.018-.964.069-1.931.083-2.897a135.85 135.85 0 0 0 0-3.378c0-.8-.059-1.598-.051-2.398 0-.489.084-.978.135-1.546-.638-.125-1.216-.285-1.805-.344-.656-.064-.929-.375-.742-1.009.485-1.632.976-3.262 1.471-4.891.536-1.782 1.076-3.566 1.638-5.422-1.165-.019-1.139-.96-1.375-1.633-.32-.935-.519-1.915-.76-2.878a7.135 7.135 0 0 1-.047-2.914c.165-1.004.392-2.015.381-3.02 0-.818-.055-1.593.269-2.369.102-.245.029-.587-.026-.869-.141-.726-.01-.978.682-1.234.935-.339 1.909-.601 2.785-1.05.748-.392 1.375-.979 2.064-1.503.136-.103.224-.287.372-.356.823-.391.878-1.091.827-1.87-.038-.571 0-1.146 0-1.76-.59.11-.812-.227-.843-.681-.051-.683-.035-1.37-.047-2.054 0-.22.016-.438 0-.653-.138-1.522.22-3.678 2.102-4.392a8.193 8.193 0 0 1 2.427-.46c.914-.05 1.752.783 1.813 1.61 1.391.587 1.754 1.401 1.416 2.892-.196.895-.224 1.832-.414 2.738-.077.37-.475.669-.564 1.039a6.15 6.15 0 0 0-.177 1.772c.071 1.22 1.146 1.579 2.016 1.974 1.178.532 2.439.862 3.655 1.304.472.173.919.413 1.42.642.179-.282.313-.673.589-.882a6.89 6.89 0 0 1 1.328-.685 6.728 6.728 0 0 1 1.238-.504c.848-.196 1.673.095 2.392.453 2.051 1.027 2.465 3.257 1.866 4.932-.053.15-.128.391-.059.473.641.808.069 1.369-.393 1.933-.461.563-.819 1.189-.669 2.03.819-.248 1.414.178 1.979.667.12.104.197.268.307.372.209.212.45.389.715.526a1.511 1.511 0 0 1 .939 1.584.557.557 0 0 0 .235.419c.361.242.74.456 1.134.64.695.315.97.794.96 1.584 0 .867.183 1.737.285 2.604l.002 1.95zm-25.195-21.044c.923-.121 1.768-.28 2.634-.336.866-.057 1.674-.014 2.495-.014-.778-1.772-4.343-1.33-5.129.35zm12.361 12.273l.185.107c.392-.418.942-.782 1.109-1.273.167-.491-.031-1.111-.125-1.667-.087-.506-.25-.586-.76-.5-.138 1.117-.274 2.224-.409 3.333zM4.488 110.944c-.835-.831-.316-1.68 0-2.509.489-1.36.811-2.773.96-4.21.233-1.889.625-3.781 2.118-5.127.648-.587 1.54-.913 2.357-1.281.171-.076.517.15.739.3a.542.542 0 0 0 .626.044c1.193-.508 2.418-.935 3.62-1.418.345-.143.669-.333.96-.565.42-.304.805-.653 1.148-1.04a2.553 2.553 0 0 0 .505-2.022c-.053-.39-.14-.772-.59-1.032-.21-.126-.263-.605-.29-.931a25.52 25.52 0 0 1-.118-2.51 3.92 3.92 0 0 1 .709-2.326c.067-.092.185-.184.187-.278.013-.7.508-.927 1.052-1.15 1.44-.587 3.654-.262 4.599.738.597.617.934 1.437.944 2.294-.014.856.08 1.71.28 2.543a2.057 2.057 0 0 1-.653 2.163c-.605.47-.628 1.027-.658 1.628-.043.957.42 1.76 1.051 2.396.415.413 1.063.612 1.63.85 1.279.533 2.575 1.02 3.852 1.554a.814.814 0 0 1 .393.483c.113.423.189.855.226 1.291.127 1.434.302 2.87.324 4.304.021 1.4-.1 2.807-.206 4.207a28.56 28.56 0 0 1-.362 2.972c-.108.6-.353 1.173-.925 1.549a.71.71 0 0 0-.187.614c.492 2.021 1.012 4.034 1.529 6.049.361 1.416.728 2.828 1.086 4.244.088.343.045.607-.367.747-.513.175-.983.493-1.503.615-.601.141-.811.547-.868 1.036a23.955 23.955 0 0 0-.23 3.064c.022 1.956.169 3.924.196 5.886.04 2.083-.021 4.166.024 6.249.02.881.206 1.761.302 2.637.034.303.024.611.028.916.041 2.347.06 4.706.126 7.059.031 1.137.196 2.271.208 3.408a11.574 11.574 0 0 1-.234 2.019c-.07.43-.43.604-.82.67-.352.063-.518.255-.425.587.12.448.273.887.457 1.313.29.657.735 1.267.898 1.956.163.688-.22 1.039-.88 1.219-.236.064-.489.064-.72.135a.892.892 0 0 0-.45.27c-.515.7-.922.856-1.794.668-.33-.07-.675-.076-1.007-.146-.574-.123-.749-.429-.623-.99.045-.196.131-.442.06-.608-.321-.769-.027-1.505.042-2.256a2.599 2.599 0 0 0-.055-.915c-.255-.951-.62-1.847-.04-2.86.305-.526.523-1.223.1-1.884a1.446 1.446 0 0 1-.137-.657c-.084-1.5-.145-3.001-.241-4.499-.034-.505-.253-1.015-.197-1.504.256-2.647-.3-5.164-1.054-7.67-.175-.587-.077-1.254-.13-1.882a22.681 22.681 0 0 0-.216-1.847c-.216-1.275-.464-2.542-.695-3.818a2.657 2.657 0 0 0-.028-.283c-.229-.776-.459-1.546-.69-2.311a2.308 2.308 0 0 0-.215-.371 2.082 2.082 0 0 0-.165.5c-.03 1.08 0 2.162-.07 3.238a7.012 7.012 0 0 0 .28 2.392c.196.7-.226 1.923-.825 2.347-.381.258-.748.536-1.098.834a.64.64 0 0 0-.183.452c.022 1.201.095 2.402.095 3.605 0 1.369-.087 2.719-.085 4.08 0 .652-.328.763-.86.697-.084-.004-.168 0-.252.011 0 .994-.012 1.984 0 2.974.018 1.046.03 2.095.102 3.129.085 1.174.271 2.361.342 3.545.046.823.022 1.649-.073 2.468-.14 1.248-.392 2.485-.56 3.731-.176 1.316-.378 2.633-.443 3.955-.067 1.369.02 2.762.564 4.069.159.391.357.761.475 1.158.16.485.264.986.312 1.494.032.552-1.007.998-1.722.783a34.993 34.993 0 0 1-.953-.304 2.97 2.97 0 0 1-.08.658 1.586 1.586 0 0 1-.327.391c-.12-.176-.326-.342-.345-.528-.079-.728-.095-1.46-.138-2.189a.457.457 0 0 0-.069-.266c-.785-.83-.699-1.772-.393-2.751.179-.515.19-1.073.034-1.596-.092-.317.075-.7.079-1.056.011-.814.011-1.627-.02-2.441a12.15 12.15 0 0 0-.173-1.26c-1.208.098-2.463.17-3.392-.943a5.824 5.824 0 0 1-.982-.307 1.412 1.412 0 0 1-.729-1.725.223.223 0 0 1 .045-.102c.448-.391.892-.782 1.35-1.174.237-.195.422-.404.206-.704-.472-.653-.74-1.287-.047-1.977.076-.079 0-.362-.067-.525a5.363 5.363 0 0 1-.468-2.302c.038-1.905.012-3.812.012-5.8l-2.443.141c-.28 1.391-.58 2.739-.813 4.108-.161.931-.077 1.868-.028 2.815.09 1.721.371 3.452-.065 5.183a34.928 34.928 0 0 0-.856 4.366c-.144 1.213-.037 2.451-.065 3.678-.012.571-.161 1.146-.104 1.706.096.954.32 1.895.462 2.846.056.391.143.812.029 1.158-.196.571-.729.587-1.159.522l-.422.767a102.47 102.47 0 0 0-.568-.624c.036-.065.069-.129.102-.196-.251.041-.503.075-.752.125-.772.157-1.287-.42-1.067-1.189.28-.978.564-1.944.804-2.934.08-.315.08-.645 0-.961-.151-.541 0-1.021.098-1.541a6.026 6.026 0 0 0 0-1.841c-.143-1.115-.393-2.216-.558-3.325-.214-1.473-.465-2.946-.56-4.427a21.952 21.952 0 0 1 .652-6.605c.323-1.325.301-2.739.415-4.108a.394.394 0 0 0-.22-.296c-.862-.281-.796-.978-.737-1.643.093-1.015.23-2.024.33-3.038.09-.903.185-1.807.214-2.715a1.036 1.036 0 0 0-.347-.682c-.908-.843-1.725-1.743-1.923-3.017a2.816 2.816 0 0 1 .106-1.064c.216-.878.065-1.751.045-2.629-.014-.667.161-1.336.197-2.007.017-.401-.134-.81-.122-1.211.057-1.832.06-3.673.25-5.492.17-1.669.3-3.326.337-5.008.022-.99.238-1.974.334-2.963.05-.438.045-.881-.016-1.317-.275-1.698.29-3.282 1.717-3.969.558-.272 1.072-.624 1.628-.951zm12.901-15.9l5.58.344.081-.118c-.34-.223-.654-.571-1.025-.651-1.238-.266-2.499-.483-3.748-.047a7.099 7.099 0 0 0-.888.471zM2.522 131.74c.134 1.252-.709 2.502.312 3.634-.318-1.113.843-2.075.291-3.21-.037-.076 0-.195-.014-.281a.479.479 0 0 0-.059-.143h-.53zm1.943-8.273l-.18-.019-.549 4.335.173.019c.53-1.38.72-2.866.556-4.335zm-2.047 16.179l.196-.025c.033-.422.1-.842.197-1.254.179-.565 0-.863-.562-1.017l.169 2.296zm15.517-1.641c.444-.596.415-.933-.159-1.238.059.436.102.827.161 1.238h-.002zM58.573 95.982c.616.354.958.857.715 1.731-.17.605.514.693.901.867.85.391 1.68.818 2.13 1.649.287.546.455 1.145.494 1.76.057.879-.096 1.761-.076 2.653.023 1.086.143 2.169.196 3.255.03.555-.022 1.115.022 1.668.047.587.065 1.201.267 1.741.365.978.04 1.911.041 2.864 0 .403-.065.806-.084 1.209-.038.782-.102 1.565-.085 2.357.024 1.037.124 2.074.175 3.112.022.427.175 1.006-.04 1.256-.858 1.005-.184 1.956-.01 2.901.127.685-.492 2.281-1.083 2.65-.367.262-.714.55-1.038.863 0 .671-.029 1.315 0 1.956.05.849.175 1.694.22 2.543.04.755.028 1.514 0 2.271-.029 1.313-.045 2.629-.137 3.94-.065.911-.245 1.817-.375 2.725 0 .066.018.168-.018.195-1.143.929-.31 2.078-.351 3.13 0 .186.066.372.064.558a32.869 32.869 0 0 1-.844 6.895c-.328 1.461-.693 2.995-.222 4.552.155.51-.024 1.111.043 1.66.098.988.26 1.968.485 2.935.14.545.509 1.034.796 1.537.208.362.037.63-.197.859a1.623 1.623 0 0 1-2.025.178 1.38 1.38 0 0 0-.251-.078c-.151.32-.197.821-.839.483.059 1.265.077 2.466.179 3.66.118 1.369-.299 2.611-.701 3.869-.32 1.003-.051 1.668.905 2.177.64.34.727.561.505 1.265-.273.867-.768 1.452-1.768 1.462-.169 0-.452.111-.487.229-.165.571-.66.586-1.078.639a8.138 8.138 0 0 1-1.923.018c-.537-.071-.425-.587-.415-.978 0-.165.146-.376.085-.485-.319-.566-.024-1.076.049-1.62.063-.46-.16-.96-.085-1.418.13-.81-.463-1.358-.589-2.042-.094-.485.116-1.035.224-1.548.069-.269.164-.531.283-.782a.993.993 0 0 0-.077-1.002 1.222 1.222 0 0 1-.12-.559 352.74 352.74 0 0 1-.257-3.859c-.014-.214.022-.431.022-.644 0-.904.033-1.809-.02-2.711-.016-.27-.316-.515-.41-.794a1.094 1.094 0 0 1 0-.677c.231-.61.32-1.101-.165-1.716-.362-.457-.48-1.173-.533-1.788a20.72 20.72 0 0 0-1.05-5.228c-.197-.546-.313-1.117-.472-1.675a.784.784 0 0 0-.289-.45c-.212 1.248-.434 2.496-.634 3.748-.27 1.661-.564 3.326-.48 5.018 0 .068-.043.15-.017.195.36.783.145 1.6.177 2.406.039 1.051.255 2.097.442 3.13.153.837-.18 1.446-1.002 1.532-.281.029-.366.037-.413.328-.033.196-.24.37-.408.615-.173-.419-.143-.812-.691-.806-1.323.013-1.71-.783-1.334-2.086.292-1.011.259-2.112.393-3.172a3.85 3.85 0 0 1 .243-1.092c.45-1.009.124-1.968-.173-2.965a4.195 4.195 0 0 0-.196.42c-.26.677-.52 1.354-.76 2.039a.514.514 0 0 0 .025.428c.409.473.151.911-.065 1.326a3.592 3.592 0 0 0-.267 2.778c.052.224.058.456.018.683-.139 1.061-.29 2.122-.454 3.182-.1.648-.279 1.287-.338 1.939-.023.476.007.954.09 1.424.103.761.378 1.527.33 2.275-.05.804-.392 1.588-.589 2.386a6.812 6.812 0 0 0-.17 1.052c-.055.681-.077 1.37-.122 2.047a.827.827 0 0 1-.762.782c-.892.113-1.913.143-2.59-.391-.675-.534-1.478-.783-2.144-1.258-.615-.446-.662-1.07.236-1.629.785-.493.817-1.288 1.178-1.945.083-.152-.108-.493-.233-.712-.356-.622-.336-1.203.196-1.59.379-.276.328-.587.275-.935-.185-1.225-.361-2.451-.54-3.678-.071-.485-.197-.978-.197-1.453a9.732 9.732 0 0 1 .218-2.171 5.74 5.74 0 0 0 .11-1.657c-.021-.783.21-1.565.307-2.347.096-.783.177-1.554.226-2.334.094-1.459.208-2.921.224-4.382.01-.962-.177-1.925-.197-2.889-.02-.814.055-1.633.104-2.449.108-1.78.23-3.56.342-5.34.03-.474.055-.884-.517-1.174-.762-.373-.34-1.076-.245-1.627.304-1.775.66-3.537.996-5.305.214-1.125.442-2.246.634-3.373.122-.723.216-1.453.273-2.185a1.148 1.148 0 0 0-.237-.62 8.702 8.702 0 0 1-1.36-4.127c-.094-1.248-.231-2.502-.212-3.75.02-1.068.244-2.132.362-3.2.08-.714.106-1.434.208-2.152.031-.271.158-.522.36-.708.887-.661 1.8-1.297 2.904-1.565.517-.121.68-.407.698-.941.035-1.05.208-2.095.26-3.145.046-.916.127-1.854-.02-2.748-.248-1.507.455-3.459 1.696-4.331.24-.213.454-.453.639-.714.267-.305.557-.587.795-.923.124-.206.217-.428.277-.66.06-.251.135-.5.222-.743.228-.475.42-.923.281-1.489-.098-.39-.037-.833-.04-1.251 0-.093 0-.247.05-.269.589-.275.457-.805.393-1.251-.144-1.057.534-1.85.81-2.77.101-.33.14-.71.33-.978.855-1.217 1.672-2.543 3.373-2.657.413-.031.845.208 1.271.313.16.068.334.096.507.082.9-.26 1.546.196 2.074.783 1.116 1.254 1.546 2.78 1.572 4.432.011.64-.073 1.291.025 1.917.084.53.393 1.022.552 1.548.083.264.024.541.024.911zM46.666 108.13l5.032.545c.05-.354-.252-.551-1.522-1.16-.97-.465-3.127.022-3.51.615zM60.5 119.193h-.145a4.16 4.16 0 0 1-.18.587c-.33.699-.27 1.358.04 2.062.146.327.067.753.083 1.134v.568c.232-.134.414-.34.517-.587.063-.237.076-.484.037-.726-.031-.227-.187-.44-.206-.667-.063-.798-.096-1.584-.146-2.371zm.786 6.199c-.801.137-.898.865-.294 2.173.098-.702.186-1.404.294-2.173z" fill="#222"/></svg>