<svg width="24" height="24" fill="none" xmlns="http://www.w3.org/2000/svg"><path d="M16 12c0 2.203-1.797 4-4 4-2.203 0-4-1.797-4-4 0-2.203 1.797-4 4-4 2.203 0 4 1.797 4 4zm2.156 0A6.148 6.148 0 0 0 12 5.844 6.148 6.148 0 0 0 5.844 12 6.148 6.148 0 0 0 12 18.156 6.148 6.148 0 0 0 18.156 12zm1.687-6.406c0-.797-.64-1.437-1.437-1.437s-1.438.64-1.438 1.437.64 1.438 1.438 1.438c.797 0 1.437-.64 1.437-1.438zM12 2.157c1.75 0 5.5-.14 7.078.484.546.22.953.485 1.374.907.422.421.688.828.907 1.374.625 1.578.484 5.328.484 7.078s.14 5.5-.484 7.078a3.834 3.834 0 0 1-.907 1.374 3.834 3.834 0 0 1-1.375.907c-1.577.625-5.327.484-7.077.484s-5.5.14-7.078-.484a3.835 3.835 0 0 1-1.374-.907 3.835 3.835 0 0 1-.907-1.375C2.016 17.5 2.157 13.75 2.157 12s-.14-5.5.484-7.078c.22-.546.485-.953.907-1.374a3.836 3.836 0 0 1 1.374-.907C6.5 2.016 10.25 2.157 12 2.157zM23.999 12c0-1.656.016-3.297-.078-4.953-.094-1.921-.531-3.624-1.937-5.03C20.577.61 18.874.172 16.953.078 15.297-.015 13.656.001 12 .001c-1.656 0-3.297-.016-4.953.078-1.921.094-3.624.531-5.03 1.937C.61 3.423.172 5.126.078 7.047-.015 8.703.001 10.344.001 12c0 1.656-.016 3.297.078 4.953.094 1.921.531 3.624 1.937 5.03 1.407 1.407 3.11 1.844 5.031 1.938 1.656.094 3.297.078 4.953.078 1.656 0 3.297.016 4.953-.078 1.921-.094 3.624-.531 5.03-1.937 1.407-1.407 1.844-3.11 1.938-5.031.094-1.656.078-3.297.078-4.953z" fill="#FCFCF9"/></svg>