<svg width="24" height="24" fill="none" xmlns="http://www.w3.org/2000/svg"><circle cx="12" cy="12" r="12" fill="#E1AB99"/><path d="M14 12c0 1.101-.899 2-2 2s-2-.899-2-2 .899-2 2-2 2 .899 2 2zm1.078 0A3.074 3.074 0 0 0 12 8.922 3.074 3.074 0 0 0 8.922 12 3.074 3.074 0 0 0 12 15.078 3.074 3.074 0 0 0 15.078 12zm.844-3.203a.717.717 0 0 0-.72-.719.717.717 0 0 0-.718.72c0 .398.32.718.719.718.398 0 .719-.32.719-.719zM12 7.08c.875 0 2.75-.07 3.539.242.273.11.476.242.687.453.211.21.344.414.453.687.313.79.243 2.664.243 3.539s.07 2.75-.243 3.539c-.11.273-.242.476-.453.687-.21.211-.414.344-.687.453-.79.313-2.664.243-3.539.243s-2.75.07-3.539-.243a1.919 1.919 0 0 1-.687-.453 1.918 1.918 0 0 1-.453-.687c-.313-.79-.242-2.664-.242-3.539s-.07-2.75.242-3.539c.11-.273.242-.476.453-.687.21-.211.414-.344.687-.453.79-.313 2.664-.242 3.539-.242zM18 12c0-.828.007-1.648-.04-2.476-.046-.961-.265-1.813-.968-2.516-.703-.703-1.555-.922-2.516-.968C13.648 5.993 12.828 6 12 6c-.828 0-1.648-.007-2.476.04-.961.046-1.813.265-2.516.968-.703.703-.922 1.555-.968 2.516C5.993 10.352 6 11.172 6 12c0 .828-.007 1.648.04 2.476.046.961.265 1.813.968 2.516.703.703 1.555.922 2.516.968.828.047 1.648.04 2.476.04.828 0 1.648.007 2.476-.04.961-.046 1.813-.265 2.516-.968.703-.703.922-1.555.968-2.516.047-.828.04-1.648.04-2.476z" fill="#000"/></svg>