<svg width="24" height="24" fill="none" xmlns="http://www.w3.org/2000/svg"><circle cx="12" cy="12" r="12" fill="#E1AB99"/><path d="M14 12a2 2 0 0 1-4 0 2 2 0 0 1 4 0zm1 0a3 3 0 0 0-3-3 3 3 0 0 0-3 3 3 3 0 0 0 3 3 3 3 0 0 0 3-3zm1-3.2a.7.7 0 0 0-.8-.7.7.7 0 0 0-.7.7c0 .4.3.7.7.7.4 0 .7-.3.7-.7zm-4-1.7c.9 0 2.8 0 3.5.2l.7.5.5.7c.3.8.2 2.6.2 3.5s0 2.8-.2 3.5a2 2 0 0 1-.5.7 2 2 0 0 1-.7.5c-.8.3-2.6.2-3.5.2s-2.8 0-3.5-.2a2 2 0 0 1-.7-.5 2 2 0 0 1-.5-.7c-.3-.7-.2-2.6-.2-3.5s0-2.7.2-3.5l.5-.7.7-.5c.8-.3 2.6-.2 3.5-.2zm6 4.9V9.5c0-1-.3-1.8-1-2.5s-1.6-1-2.5-1h-5c-1 0-1.8.3-2.5 1S6 8.6 6 9.5v5c0 1 .3 1.8 1 2.5s1.6 1 2.5 1h5c1 0 1.8-.3 2.5-1s1-1.6 1-2.5V12z" fill="#000"/></svg>