<svg width="36" height="36" fill="none" xmlns="http://www.w3.org/2000/svg"><circle cx="18" cy="18" r="18" fill="#E1AB99"/><path d="M24.857 16.607c0 1.634-1.652 3.152-1.678 3.179L18 24.776l-5.188-5c-.017-.017-1.67-1.535-1.67-3.169 0-2.509 1.697-3.036 3.126-3.036 1.33 0 2.83 1.438 3.294 1.992a.59.59 0 0 0 .875 0c.465-.554 1.965-1.992 3.295-1.992 1.429 0 3.125.527 3.125 3.036zm1.143 0c0-2.616-1.598-4.178-4.268-4.178-1.562 0-3.027 1.232-3.732 1.928-.705-.696-2.17-1.928-3.732-1.928-2.67 0-4.268 1.562-4.268 4.178 0 2.143 1.964 3.938 2.036 4l5.571 5.375c.107.107.25.16.393.16a.554.554 0 0 0 .393-.16l5.562-5.357c.08-.08 2.045-1.875 2.045-4.018z" fill="#000"/></svg>