<svg width="550" height="195" fill="none" xmlns="http://www.w3.org/2000/svg"><path fill-rule="evenodd" clip-rule="evenodd" d="M171.77 0c7.19 0 12.44 6.62 12.44 18.83 0 17.58-17.58 30.02-39.6 29.9-10.05 0-20.78-3.53-30.14-7.53L104.2 85.14h16.55c11.19 0 17.23-2.5 22.37-16.78.23-.9 1.83-1.48 3.31-1.48 1.71 0 3.54.57 3.31 1.49-1.05 4.4-1.9 7.42-2.73 10.33-.9 3.12-1.74 6.12-2.75 10.55-.89 3.93-1.54 7.33-2.19 10.74a282.2 282.2 0 0 1-2.72 13c-.34 1.14-2.05 1.48-3.3 1.48-2.17 0-3.54-.8-3.32-1.48 1.83-16.2-2.85-20.43-13.7-20.43H102.5l-7.88 32.41c-9.7 40.4-37.66 69.17-69.5 69.17-14.27 0-25.11-6.16-25.11-16.1 0-7.53 5.36-12.78 13.01-12.78 7.93 0 11.34 5.36 14.38 10.12 2.43 3.8 4.62 7.23 8.68 7.23 9.13 0 19.4-7.88 30.01-52.5l22.83-96.78a51.92 51.92 0 0 0-13.7-2.17c-18.14 0-28.07 6.85-28.07 17.46 0 8.92 4.98 10.93 9.8 12.87 4.47 1.8 8.8 3.55 8.8 10.76 0 6.39-5.82 11.52-13.13 11.52-11.4 0-19.51-7.87-19.51-22.48 0-23.63 24.88-46.45 52.16-46.45 17.47 0 32.55 6.18 45.99 11.68 10.79 4.42 20.51 8.4 29.56 8.4 7.88 0 10.27-4.45 10.27-9.7 0-2.6-2.2-4.47-4.5-6.41-2.54-2.14-5.2-4.39-5.2-7.85A10.62 10.62 0 0 1 171.77 0zm204.06 56.38c-6.16 1.26-14.6 2.17-44.05 2.17-29.22 0-37.9-.91-44.05-2.17a268.54 268.54 0 0 1-9.14 31.05c-.34.68.92 1.48 2.52 1.48s2.96-.57 3.08-1.48c4.33-10.4 15.4-22.15 24.54-22.15h3.3c4.57 0 6.4 1.49 5.26 6.05l-12.67 53.19-.16.65-.16.67c-1.79 7.49-2.54 10.65-14.63 12.37-.69.23-1.49 2.4-1.49 3.66 0 1.25.34 2.4.57 2.4 3.73 0 7.38-.23 11.12-.45 3.93-.23 7.95-.47 12.28-.47 4.2 0 8.45.23 12.7.45 4.28.23 8.57.46 12.87.46.9 0 1.48-2.5 1.48-4 0-.56-.23-2.05-.57-2.05-9.13-1.25-11.53-3.65-11.53-8.21.08-1.86.39-3.7.91-5.48l12.67-53.19c1.14-4.56 2.97-6.05 7.65-6.05h.91c9.7 0 16.44 8.56 16.78 22.49 0 .68 1.6 1.14 2.74 1.14 1.14 0 2.97-.34 3.08-1.14.69-8.8 2.4-22.26 4-31.39zm77.33 1.3l.97-.04a184.81 184.81 0 0 0-1.26 14.6 126.02 126.02 0 0 0 0 13.13c0 .57-1.82 1.14-2.96 1.14-1.37 0-2.97-.57-2.97-1.14-.91-12.21-6.85-20.09-19.52-20.09h-4c-4.22 0-7.64 1.6-9.47 9.48l-4.9 20.88h5.48c7.64 0 14.03-1.25 17.91-12.21.23-.57 1.49-1.14 2.74-1.14 1.26 0 2.74.57 2.51 1.14-.76 3.25-1.36 5.5-1.95 7.68v.02c-.65 2.4-1.26 4.7-2.04 8.16-.99 3.82-1.6 6.88-2.24 10.12-.47 2.38-.96 4.85-1.64 7.8-.12.92-1.6 1.14-2.51 1.14-1.6 0-2.74-.57-2.74-1.14 1.37-11.64-2.74-14.95-11.76-14.95h-5.48l-5.25 22.37a32.47 32.47 0 0 0-.9 6.73c0 3.43 1.7 5.25 6.04 5.25h9.36c13.92 0 23.4-10.15 27.05-22.82.23-.34 1.37-.34 2.05-.34 1.6 0 4 1.48 3.66 2.4-2.28 7.7-4.66 18.29-6.66 27.16v.02l-.3 1.35-5.16-.2h-.08c-8.36-.33-18.2-.72-26.72-.72-10.39 0-39.15.57-47.02.92-.35 0-.69-1.14-.69-2.4s.69-3.42 1.6-3.65c11.47-1.56 12.4-5.3 14.35-13.1l.14-.6 11.3-47.13a25.24 25.24 0 0 0 .92-5.71c0-4.45-2.4-6.85-10.62-8.1-.34 0-.57-1.49-.57-2.06 0-1.94.8-4 1.48-4 6.74.35 34.02.92 42.8.92 8.45 0 20.9-.53 29.05-.87zM550 142.55c0-.91-.23-1.48-.91-1.6-9.7-2.96-14.5-7.64-18.26-15.75l-11.3-22.82c11.87-2.4 25.8-11.76 25.8-23.74 0-14.61-12.22-20.89-32.2-20.89-4.02 0-8.32.24-12.52.47-4 .23-7.93.44-11.44.44-4.08 0-7.26-.22-10.46-.45-3.25-.23-6.52-.46-10.77-.46-.91 0-1.6 2.4-1.6 4 0 .56.23 2.05.69 2.05 8.1 1.26 10.38 3.65 10.38 8.1a25.18 25.18 0 0 1-.91 5.7l-11.3 47.15-.08.36c-1.77 7.97-2.61 11.76-14.41 13.33-.69.23-1.49 2.4-1.49 3.65 0 1.26.34 2.4.69 2.4 3.74 0 7.28-.22 10.9-.44h.01c3.79-.23 7.66-.47 11.91-.47 4.3 0 8.33.23 12.35.46 4 .22 7.98.45 12.2.45.9 0 1.48-2.51 1.48-4 0-.57-.23-2.05-.58-2.05-8.1-1.25-10.38-3.42-10.38-8.1.08-1.93.39-3.85.91-5.7l4.34-18.27c3.88 0 6.05 1.14 7.53 4.34l15.75 33.44c11.19 0 24.31.68 30.59 2.5 1.03.24 3.08-1.59 3.08-4.1zm-29.1-66.08c0 10.96-6.17 23.97-20.66 23.97h-6.05l6.73-27.62c1.49-6.17 3.31-8.22 9.48-8.22 7.42 0 10.5 3.65 10.5 11.87zm-240.14 34.58c1.83 0 3.66 1.48 3.31 2.4-2.96 7.42-7.41 21.91-9.93 30.93l-2.28-.09c-9.33-.34-22.49-.83-31.95-.83-10.28 0-34.24.57-42.12.92-.34 0-.68-1.14-.68-2.4s.68-3.42 1.6-3.65c11.8-1.58 12.64-5.37 14.4-13.33l.09-.37 11.3-47.13a25.24 25.24 0 0 0 .91-5.71c0-4.45-2.28-6.85-10.39-8.1-.45 0-.68-1.49-.68-2.06 0-1.94.91-4 1.48-4 4.3 0 8.5.24 12.7.47 4.17.22 8.32.45 12.53.45 4.32 0 8.11-.24 11.8-.47 3.52-.23 6.95-.44 10.68-.44.23 0 .57 1.14.57 2.4 0 1.25-.8 3.42-1.48 3.65-11.59 1.56-12.52 5.29-14.47 13.1l-.14.6-11.3 47.13a32.36 32.36 0 0 0-.91 6.62c0 3.88 1.82 5.48 6.05 5.48h3.99c14.04 0 27.05-11.76 32.53-24.88.23-.35.91-.69 2.4-.69zm-73.95-51.02c0-1.25-.35-2.4-.69-2.4-3.73 0-7.13.22-10.62.45-3.66.23-7.42.47-11.75.47-4.22 0-8.39-.23-12.55-.46s-8.33-.45-12.56-.45c-.91 0-1.6 2.4-1.6 4 0 .56.23 2.04.69 2.04 8.1 1.26 10.39 3.66 10.39 8.1a25.24 25.24 0 0 1-.92 5.71l-11.3 47.14-.08.37c-1.77 7.96-2.6 11.75-14.41 13.33-.69.23-1.49 2.4-1.49 3.65s.35 2.4.58 2.4c3.72 0 7.29-.22 10.94-.44 3.85-.24 7.78-.48 12.11-.48 4.2 0 8.13.23 12.1.45 4.03.23 8.07.47 12.44.47.68 0 1.48-2.51 1.48-4 0-.57-.23-2.05-.57-2.05-8.1-1.26-10.61-3.43-10.61-8.1a52.14 52.14 0 0 1 .91-5.71l11.3-47.14.15-.59c1.94-7.81 2.87-11.55 14.34-13.1 1.03-.23 1.72-2.4 1.72-3.66z" fill="#FCFCF9"/></svg>