<svg width="54" height="37" fill="none" xmlns="http://www.w3.org/2000/svg"><path d="M13.027 0C5.843 0 0 5.682 0 12.669s5.843 12.669 13.027 12.669c7.185 0 13.028-5.682 13.028-12.669S20.207 0 13.028 0zm0 20.99a8.734 8.734 0 0 1-4.756-1.404 8.38 8.38 0 0 1-3.153-3.736 8.113 8.113 0 0 1-.487-4.81 8.257 8.257 0 0 1 2.343-4.263 8.638 8.638 0 0 1 4.383-2.278 8.786 8.786 0 0 1 4.947.473 8.514 8.514 0 0 1 3.842 3.067 8.163 8.163 0 0 1 1.442 4.625 8.217 8.217 0 0 1-2.509 5.885 8.692 8.692 0 0 1-6.052 2.44zM40.973 0C33.79 0 27.945 5.682 27.945 12.669V37h4.467V22.208a13.186 13.186 0 0 0 8.56 3.125C48.155 25.333 54 19.65 54 12.663 54 5.678 48.154 0 40.973 0zm0 20.99a8.734 8.734 0 0 1-4.756-1.404 8.38 8.38 0 0 1-3.154-3.736 8.113 8.113 0 0 1-.487-4.81 8.257 8.257 0 0 1 2.343-4.263 8.639 8.639 0 0 1 4.384-2.278 8.786 8.786 0 0 1 4.946.473A8.514 8.514 0 0 1 48.09 8.04a8.163 8.163 0 0 1 1.443 4.625 8.217 8.217 0 0 1-2.51 5.885 8.692 8.692 0 0 1-6.051 2.44z" fill="#FCFCF9"/><path d="M18.098 12.669c0 .976-.299 1.93-.857 2.74a5.045 5.045 0 0 1-2.277 1.817 5.207 5.207 0 0 1-2.932.28 5.12 5.12 0 0 1-2.597-1.352 4.893 4.893 0 0 1-1.387-2.527 4.808 4.808 0 0 1 .29-2.85 4.966 4.966 0 0 1 1.87-2.214 5.176 5.176 0 0 1 2.82-.83c1.345 0 2.635.521 3.586 1.447a4.865 4.865 0 0 1 1.484 3.489zM46.045 12.669c0 .976-.298 1.93-.855 2.74a5.044 5.044 0 0 1-2.277 1.817 5.206 5.206 0 0 1-2.93.28 5.118 5.118 0 0 1-2.598-1.35 4.892 4.892 0 0 1-1.388-2.526 4.807 4.807 0 0 1 .29-2.85 4.965 4.965 0 0 1 1.867-2.213 5.198 5.198 0 0 1 4.76-.456 5.084 5.084 0 0 1 1.645 1.07 4.925 4.925 0 0 1 1.1 1.6c.255.598.386 1.24.386 1.888z" fill="#FCFCF9"/></svg>
