<svg width="550" height="195" fill="none" xmlns="http://www.w3.org/2000/svg"><path fill-rule="evenodd" clip-rule="evenodd" d="M171.768 0c7.19 0 12.44 6.62 12.44 18.832 0 17.576-17.576 30.016-39.603 29.902-10.044 0-20.772-3.538-30.131-7.532l-10.272 43.94h16.549c11.185 0 17.234-2.51 22.37-16.777.228-.913 1.826-1.484 3.31-1.484 1.712 0 3.538.57 3.31 1.484-1.046 4.402-1.906 7.425-2.733 10.334-.889 3.125-1.741 6.119-2.746 10.552-.89 3.926-1.54 7.325-2.192 10.734-.769 4.024-1.542 8.063-2.715 13.005-.343 1.142-2.055 1.484-3.31 1.484-2.169 0-3.538-.799-3.31-1.484 1.826-16.206-2.853-20.43-13.696-20.43H102.49l-7.875 32.414c-9.701 40.403-37.663 69.164-69.506 69.164C10.842 194.138 0 187.975 0 178.045c0-7.532 5.364-12.783 13.011-12.783 7.926 0 11.343 5.355 14.38 10.114 2.43 3.808 4.617 7.234 8.675 7.234 9.13 0 19.402-7.875 30.016-52.5l22.826-96.784a51.916 51.916 0 0 0-13.695-2.168c-18.147 0-28.077 6.848-28.077 17.462 0 8.923 4.987 10.931 9.797 12.868 4.48 1.805 8.807 3.547 8.807 10.757 0 6.392-5.82 11.528-13.125 11.528-11.413 0-19.517-7.876-19.517-22.484 0-23.626 24.88-46.452 52.158-46.452 17.471 0 32.554 6.179 45.99 11.683 10.79 4.42 20.517 8.404 29.565 8.404 7.875 0 10.272-4.45 10.272-9.7 0-2.61-2.201-4.47-4.507-6.416-2.534-2.14-5.194-4.385-5.194-7.851A10.624 10.624 0 0 1 171.768 0zm204.067 56.38c-6.163 1.256-14.609 2.17-44.055 2.17-29.217 0-37.891-.914-44.054-2.17a268.544 268.544 0 0 1-9.131 31.045c-.342.684.913 1.483 2.511 1.483s2.967-.57 3.082-1.483c4.336-10.386 15.407-22.142 24.538-22.142h3.31c4.565 0 6.391 1.484 5.25 6.05l-12.669 53.184-.159.657-.158.664c-1.786 7.489-2.54 10.647-14.634 12.375-.685.229-1.484 2.397-1.484 3.652 0 1.256.342 2.397.571 2.397 3.728 0 7.375-.217 11.113-.439h.003c3.927-.234 7.954-.474 12.281-.474 4.208 0 8.445.227 12.697.454l.004.001c4.279.229 8.571.458 12.864.458.913 0 1.484-2.511 1.484-3.994 0-.571-.228-2.055-.571-2.055-9.13-1.255-11.527-3.652-11.527-8.217.079-1.857.385-3.697.913-5.479l12.669-53.185c1.141-4.565 2.967-6.049 7.646-6.049h.913c9.702 0 16.435 8.56 16.778 22.484 0 .685 1.598 1.141 2.739 1.141 1.141 0 2.967-.342 3.081-1.14.685-8.789 2.397-22.257 3.995-31.387zm77.328 1.297l.966-.04v.005c-.571 5.134-1.141 10.268-1.255 14.603a126.015 126.015 0 0 0 0 13.125c0 .571-1.826 1.142-2.968 1.142-1.369 0-2.967-.571-2.967-1.142-.913-12.212-6.848-20.087-19.516-20.087h-3.995c-4.223 0-7.647 1.598-9.473 9.473l-4.908 20.886h5.479c7.646 0 14.038-1.255 17.918-12.212.229-.57 1.484-1.141 2.739-1.141 1.256 0 2.74.57 2.511 1.141-.759 3.255-1.364 5.505-1.949 7.68v.002l-.002.005-.005.018c-.643 2.392-1.262 4.698-2.038 8.16-.987 3.815-1.595 6.872-2.238 10.111-.473 2.38-.966 4.858-1.643 7.807-.114.913-1.598 1.141-2.511 1.141-1.597 0-2.739-.57-2.739-1.141 1.37-11.641-2.739-14.951-11.755-14.951h-5.479l-5.25 22.37a32.465 32.465 0 0 0-.913 6.733c0 3.424 1.712 5.25 6.049 5.25h9.359c13.924 0 23.397-10.157 27.049-22.826.229-.342 1.37-.342 2.055-.342 1.597 0 3.994 1.483 3.652 2.397-2.278 7.703-4.66 18.293-6.655 27.164l-.001.005-.001.005-.001.005-.001.007-.303 1.346c-1.632-.06-3.359-.128-5.155-.198l-.076-.003c-8.364-.327-18.199-.712-26.726-.712-10.386 0-39.147.571-47.022.913-.343 0-.685-1.141-.685-2.396 0-1.256.685-3.424 1.598-3.653 11.471-1.559 12.4-5.291 14.347-13.106l.147-.589 11.3-47.137a25.24 25.24 0 0 0 .913-5.706c0-4.451-2.397-6.848-10.615-8.104-.342 0-.57-1.483-.57-2.054 0-1.94.799-3.995 1.483-3.995 6.734.343 34.012.913 42.8.913 8.447 0 20.9-.527 29.05-.872zM550 142.55c0-.913-.228-1.483-.913-1.598-9.701-2.967-14.495-7.646-18.261-15.75l-11.299-22.826c11.87-2.397 25.794-11.756 25.794-23.74 0-14.608-12.212-20.885-32.185-20.885-4.027 0-8.323.238-12.521.472-4.011.223-7.934.44-11.447.44-4.081 0-7.261-.225-10.462-.451-3.246-.23-6.515-.462-10.767-.462-.913 0-1.597 2.397-1.597 3.995 0 .57.228 2.054.684 2.054 8.104 1.256 10.386 3.653 10.386 8.104a25.183 25.183 0 0 1-.913 5.706L465.2 124.746l-.081.365c-1.768 7.967-2.609 11.756-14.413 13.331-.685.228-1.484 2.396-1.484 3.652 0 1.255.342 2.396.685 2.396 3.739 0 7.287-.218 10.911-.441h.007c3.785-.233 7.653-.472 11.908-.472 4.293 0 8.327.23 12.348.459h.004c3.996.228 7.978.454 12.186.454.913 0 1.484-2.51 1.484-3.994 0-.571-.228-2.054-.571-2.054-8.103-1.256-10.386-3.424-10.386-8.104.085-1.931.391-3.846.913-5.706l4.337-18.262c3.881 0 6.049 1.142 7.533 4.338l15.75 33.44c11.185 0 24.31.685 30.588 2.511 1.027.228 3.081-1.598 3.081-4.109zm-29.104-66.082c0 10.957-6.163 23.968-20.657 23.968h-6.049l6.733-27.62c1.484-6.163 3.31-8.218 9.473-8.218 7.419 0 10.5 3.653 10.5 11.87zM280.764 111.05c1.826 0 3.652 1.484 3.309 2.397-2.967 7.418-7.418 21.913-9.929 30.929l-2.287-.084c-9.33-.344-22.484-.829-31.952-.829-10.272 0-34.24.571-42.115.913-.342 0-.685-1.141-.685-2.396 0-1.256.685-3.424 1.598-3.653 11.805-1.574 12.646-5.363 14.414-13.33l.081-.365 11.299-47.137a25.24 25.24 0 0 0 .913-5.706c0-4.451-2.283-6.848-10.386-8.104-.457 0-.685-1.483-.685-2.054 0-1.94.913-3.995 1.484-3.995 4.294 0 8.502.23 12.696.46 4.166.227 8.318.453 12.527.453 4.327 0 8.115-.24 11.808-.473h.002c3.515-.223 6.945-.44 10.674-.44.228 0 .57 1.142.57 2.397 0 1.256-.798 3.424-1.483 3.652-11.585 1.56-12.515 5.294-14.463 13.112l-.146.584-11.299 47.136a32.364 32.364 0 0 0-.913 6.62c0 3.881 1.826 5.478 6.049 5.478h3.994c14.039 0 27.05-11.755 32.528-24.88.228-.343.913-.685 2.397-.685zm-73.958-51.017c0-1.255-.342-2.397-.685-2.397-3.728 0-7.131.217-10.618.44h-.002c-3.664.234-7.422.473-11.749.473-4.223 0-8.389-.228-12.555-.456s-8.331-.457-12.554-.457c-.913 0-1.598 2.397-1.598 3.995 0 .57.228 2.054.685 2.054 8.103 1.256 10.386 3.653 10.386 8.104a25.24 25.24 0 0 1-.913 5.706l-11.299 47.137-.081.365c-1.768 7.967-2.609 11.756-14.414 13.33-.685.229-1.484 2.397-1.484 3.653 0 1.255.343 2.396.571 2.396 3.728 0 7.293-.217 10.947-.439h.003c3.84-.234 7.777-.474 12.104-.474 4.194 0 8.135.226 12.102.452h.004c4.02.23 8.068.461 12.433.461.684 0 1.483-2.511 1.483-3.994 0-.571-.228-2.055-.57-2.055-8.104-1.255-10.615-3.424-10.615-8.103a52.14 52.14 0 0 1 .914-5.707L190.6 77.381l.147-.59c1.947-7.814 2.877-11.546 14.347-13.106 1.027-.228 1.712-2.396 1.712-3.652z" fill="#FCFCF9"/></svg>
