<svg width="36" height="36" fill="none" xmlns="http://www.w3.org/2000/svg"><circle cx="18" cy="18" r="18" fill="#E1AB99"/><path d="M25.6 15L22 11.5c-.8-.8-2.1-.3-2.1.8v1.5c-1.2 0-2.2.2-3.2.5-1 .2-1.6.7-2.2 1.2-.6.7-.9 1.6-.9 2.6 0 1.6.9 2.9 2.2 3.7 1 .6 2.2-.3 1.9-1.4-.4-1.3-.5-1.9 2.2-2v1.3c0 1.1 1.3 1.7 2 .9l3.8-3.7c.5-.5.5-1.3 0-1.7zM21 19.7V17c-3.4 0-5.7.5-4.6 3.6a3.1 3.1 0 0 1-1.6-2.6c0-2.8 3.3-3 6.2-3.1v-2.7l3.8 3.7-3.8 3.7zm.6 2.2l.6-.3a.3.3 0 0 1 .5.3v1c0 .8-.6 1.3-1.3 1.3h-9.1c-.7 0-1.3-.5-1.3-1.2v-9c0-.7.6-1.3 1.3-1.3h3.4a.3.3 0 0 1 .3.3v.2s0 .2-.2.2a6.4 6.4 0 0 0-1 .5.3.3 0 0 1-.2 0h-2.2a.2.2 0 0 0-.1.1.2.2 0 0 0 0 .1V22.8h9a.2.2 0 0 0 .1 0V22c0-.2.1-.3.2-.3z" fill="#000"/></svg>