<svg width="36" height="36" fill="none" xmlns="http://www.w3.org/2000/svg"><circle cx="18" cy="18" r="18" fill="#E1AB99"/><path d="M25.804 15.621l-3.75 3.541A.625.625 0 0 1 21 18.708v-1.874c-3.765.025-5.353.914-4.291 4.462.117.39-.334.692-.651.451-1.015-.77-1.933-2.245-1.933-3.733 0-3.748 3.063-4.492 6.875-4.513v-1.876c0-.551.66-.827 1.054-.454l3.75 3.541a.625.625 0 0 1 0 .909zM21 20.873v1.794h-8.333v-8.334h1.326a.312.312 0 0 0 .225-.096c.39-.405.84-.726 1.328-.981.29-.151.183-.59-.144-.59H12.25c-.69 0-1.25.56-1.25 1.25v9.167c0 .69.56 1.25 1.25 1.25h9.167c.69 0 1.25-.56 1.25-1.25v-2.312a.312.312 0 0 0-.417-.295c-.286.101-.591.131-.89.088a.313.313 0 0 0-.36.31z" fill="#000"/></svg>