<svg width="36" height="36" fill="none" xmlns="http://www.w3.org/2000/svg"><circle cx="18" cy="18" r="18" fill="#E1AB99"/><path d="M25.634 15.052l-3.75-3.69c-.782-.77-2.134-.231-2.134.87v1.466c-1.105.048-2.188.168-3.145.46-.916.281-1.642.708-2.159 1.268-.628.68-.946 1.537-.946 2.545 0 1.582.864 2.883 2.21 3.711.978.603 2.22-.324 1.85-1.429-.404-1.208-.447-1.818 2.19-2.019v1.38c0 1.101 1.353 1.638 2.134.87l3.75-3.692c.488-.48.488-1.26 0-1.74zM21 19.613v-2.662c-3.351.05-5.664.595-4.627 3.688-.77-.473-1.623-1.331-1.623-2.668 0-2.803 3.363-3.05 6.25-3.072V12.23l3.75 3.69L21 19.614zm.644 2.166c.193-.054.377-.134.547-.238a.312.312 0 0 1 .476.262v1.091c0 .68-.56 1.231-1.25 1.231H12.25c-.69 0-1.25-.55-1.25-1.23V13.87c0-.68.56-1.23 1.25-1.23h3.438a.31.31 0 0 1 .312.307v.115c0 .126-.078.24-.197.286a6.44 6.44 0 0 0-.991.476.32.32 0 0 1-.163.046h-2.243a.158.158 0 0 0-.11.045.153.153 0 0 0-.046.109v8.716c0 .04.017.08.046.108.03.03.069.046.11.046h8.854a.158.158 0 0 0 .11-.046.153.153 0 0 0 .047-.108v-.666c0-.138.093-.258.227-.296z" fill="#000"/></svg>