<svg width="24" height="24" fill="none" xmlns="http://www.w3.org/2000/svg"><circle cx="12" cy="12" r="12" fill="#E1AB99"/><path d="M19 8.157a4.93 4.93 0 0 1-1.416.381c.51-.305.898-.784 1.081-1.355a4.842 4.842 0 0 1-1.56.594A2.454 2.454 0 0 0 15.306 7a2.458 2.458 0 0 0-2.46 2.46c0 .19.024.38.062.563a6.99 6.99 0 0 1-5.071-2.574 2.458 2.458 0 0 0 .761 3.29 2.477 2.477 0 0 1-1.112-.313v.03a2.46 2.46 0 0 0 1.972 2.415 2.6 2.6 0 0 1-1.111.045 2.464 2.464 0 0 0 2.3 1.706 4.925 4.925 0 0 1-3.054 1.05c-.206 0-.396-.007-.594-.03a6.95 6.95 0 0 0 3.777 1.104c4.523 0 6.997-3.746 6.997-6.997 0-.107 0-.213-.008-.32.48-.35.899-.784 1.234-1.272z" fill="#000"/></svg>