<svg width="24" height="24" fill="none" xmlns="http://www.w3.org/2000/svg"><path d="M24 4.32a9.86 9.86 0 0 1-2.83.76 4.9 4.9 0 0 0 2.16-2.71 9.68 9.68 0 0 1-3.12 1.18A4.9 4.9 0 0 0 16.6 2a4.92 4.92 0 0 0-4.91 4.92c0 .38.04.76.12 1.13A13.98 13.98 0 0 1 1.68 2.9 4.88 4.88 0 0 0 1 5.38c0 1.7.86 3.21 2.19 4.1a4.95 4.95 0 0 1-2.22-.63v.06a4.92 4.92 0 0 0 3.94 4.83 5.2 5.2 0 0 1-1.3.17c-.32 0-.62-.03-.92-.08a4.93 4.93 0 0 0 4.6 3.41 9.85 9.85 0 0 1-6.11 2.1c-.41 0-.8-.01-1.19-.06a13.9 13.9 0 0 0 7.55 2.21c9.05 0 14-7.49 14-14 0-.2 0-.42-.02-.63.96-.7 1.8-1.57 2.47-2.54z" fill="#FCFCF9"/></svg>