<svg width="24" height="24" fill="none" xmlns="http://www.w3.org/2000/svg"><path d="M24 4.315a9.86 9.86 0 0 1-2.832.761 4.905 4.905 0 0 0 2.162-2.71 9.683 9.683 0 0 1-3.122 1.187A4.907 4.907 0 0 0 16.614 2a4.917 4.917 0 0 0-4.919 4.919c0 .38.046.761.122 1.127A13.981 13.981 0 0 1 1.675 2.898a4.882 4.882 0 0 0-.67 2.483c0 1.705.868 3.213 2.193 4.096a4.954 4.954 0 0 1-2.223-.624v.06a4.92 4.92 0 0 0 3.944 4.828 5.2 5.2 0 0 1-1.295.168c-.32 0-.624-.03-.929-.077a4.928 4.928 0 0 0 4.6 3.412 9.851 9.851 0 0 1-6.107 2.101c-.411 0-.792-.015-1.188-.06a13.9 13.9 0 0 0 7.553 2.207c9.046 0 13.995-7.492 13.995-13.995 0-.213 0-.426-.015-.64.96-.7 1.797-1.568 2.467-2.542z" fill="#FCFCF9"/></svg>