<svg width="178" height="182" fill="none" xmlns="http://www.w3.org/2000/svg"><path d="M92.9 182a7.6 7.6 0 0 0-.9-.2c-.3-.1-.6-.2-.6-.6v-2.8-.3c-.7-.5-.3-1.2-.4-1.8a1.3 1.3 0 0 0-.3-.7 2 2 0 0 1-.6-1.5l.1-2.2c.2-1.1-.2-2.1-.6-3.1a10.8 10.8 0 0 1-.7-3.4 8.8 8.8 0 0 0-.1-1l-1.2.8c-.6.3-2.2 0-2.7-.5a.3.3 0 0 1-.1-.1l-.4-3.2c0-.5.3-1.1 0-1.5-.5-1-.4-2 .2-3 .2-.5.2-1 0-1.4-.4-.6-.1-1.1 0-1.6v-.5c0-.5-.3-1-.4-1.7V149l-.1-2.3-.5-2.5a2 2 0 0 0-.1-.3l-.3 1.9L82 152l-1 6.2a6.5 6.5 0 0 1-.4 1.3c-.5 1.2-.5 2.4-.7 3.7a51.5 51.5 0 0 0-.4 7.8v1.4a5.8 5.8 0 0 1-1 3.8 2.4 2.4 0 0 0-.4 1.4c0 .8-.2 1.6-.3 2.3v.4c.1.8 0 1-1 1.2-.5.2-1.1.4-1.8 0a2.3 2.3 0 0 1-1.2-1 2 2 0 0 0-.5-.8 3.3 3.3 0 0 1-1.2-1.6c-.4-.8.5-2.5 1.3-2.8.5 0 .7-.3.5-.8-.2-.5 0-1 .4-1.4l.2-.6-.1-3V165.6v-1l-1.6.1c-.7 0-1.3-.2-1.7-.9a.9.9 0 0 0-.7-.5c-.6 0-1-.8-.7-1.3l.8-1.7v-1c0-.5-.1-1 .1-1.5s.5-1 0-1.5a.4.4 0 0 1 0-.2c0-1.3-.3-2.6-.2-3.8 0-1.9.3-3.7.4-5.5l.4-6c0-1.7 0-3.4.2-5.1l.4-4.4c.2-1.4.1-2.9.3-4.3.1-.8 0-1.3-.9-1.5-.6-.3-.4-.9-.3-1.3l.7-4.4.5-1.3a5 5 0 0 0 .1-1.1v-1.6l.1-2a1 1 0 0 0-.2-.5 6.5 6.5 0 0 1-1.4-3.8c-.1-1.7-.3-3.3-.3-5l.2-2.8a13.8 13.8 0 0 1 .4-1.8c.3-1.3 1.4-1.9 2.5-2.4a3 3 0 0 1 .4-.2c0-1.5.2-2.8.3-4.2l.2-2.7V87l.1-4.6.5-4c0-.5-.3-.5-.7-.6l-1.9-.7c-.2 0-.3-.5-.2-.8.2-1.4.6-2.7 1-4l1.3-5.7 1.3-5a.3.3 0 0 0 0-.2c-.2-1.5.8-2.8 1-4.3l1-4 .2-2.5-2.1-.3-2.3-.4a1.6 1.6 0 0 1-1.2-1 8.4 8.4 0 0 1-.6-3.8v-5.3a1.2 1.2 0 0 1 .2-.5c.4-.9.4-1.8.4-2.7l.1-.7.4-2.4.4-2.7.4-2c.2-.8.9-1.2 1.6-1.3a38.8 38.8 0 0 0 6.3-1.6c1-.4 2-.7 2.8-1.5l1.6-1.6c.6-.9.5-1.9 0-2.9l-1-3a3.9 3.9 0 0 1-.1-.5c-.8 0-1.1-.4-1.2-1.2a3 3 0 0 0-.3-1.2 2 2 0 0 1 .6-2.8c-.6-1.2-.3-2.5-.2-3.7a1 1 0 0 0 0-.4c-.3-.9.2-1.6.5-2.4 0-.3 0-.7.2-1 .6-1 1.5-1.5 2.4-2a20.7 20.7 0 0 1 3-1.3c1.9-.7 3.7-.5 5.5.5.3.3.8.4 1 .6.7.4.9 1.1 1 1.8l.1.4c1.2 1.4 1.4 3 1.2 4.7v1.8a.6.6 0 0 0 0 .3c.9.9.5 1.9.5 2.8l-.3 1.6c-.2.7-.7 1-1.2 1.5a1 1 0 0 0-.5.5 27.1 27.1 0 0 0-.5 3.3 3 3 0 0 0 1 2.6l.1.2a3 3 0 0 0 1.4 1.4c.8.3 1.4 1 2.2 1.4l1.4.4c.2 0 .4 0 .6.2 1.2.6 2.6.6 3.9.9 1.3.2 2 .7 2.4 2.4a293.3 293.3 0 0 1 1 3.7c-.1 1.4.3 2.7.6 4l.2 2.2.2 2a20.5 20.5 0 0 1-.4 3c-.2 1-.5 1.7-.8 2.5 0 .2-.2.3-.3.5l-1 1-.8.5c-1 .3-2.1.2-3.2 0l-.1.1c-.2 2.1 0 4.2.5 6.3.2 1.4.6 2.8 1 4.2a165.6 165.6 0 0 0 1.4 6.8l1.7 7.5c.2.7.1 1.5.1 2.2 0 .5-.3.8-.8 1-.8.3-.8.3-.7 1.2a96 96 0 0 1 .7 10c.1 1.3 0 2.7.2 4.1 0 1.7.2 3.4.3 5v1.8l2.7-1.4 1.1-.9.2-.2a4 4 0 0 1 .7-1.6c.3-.4-.2-1.3-.7-1.6l-.3-.2a37.1 37.1 0 0 1-.6-2s-.1-.3 0-.4c.6-.5.3-1.3.5-2 .4-1.7 1.2-2.9 3.2-3.1 1.6-.2 3 .4 3.7 2.1.2.7.1 1.4.3 2.2 0 .4.2.8.1 1.2a3 3 0 0 1-.3 1.3c-.3.4-.4.9-1 1-.3.1-.4.8-.6 1.2-.4.5 0 .8.2 1.2.5 1.4 1.7 2 3 2.7a.6.6 0 0 1 .3.5v1a3.6 3.6 0 0 1 .5-2c.7-1.1 2.6-2.2 4.1-1.8a5.4 5.4 0 0 1 2.3 1c.8.6 1 1.5 1.1 2.4.1.5 0 1 0 1.6v.3c.6.8.4 2-.3 2.7-.8 1-1.1 2.7.3 3.4 1 .5 2 1.3 3.1 1.5.5.1 1 .5 1.4.8a5.6 5.6 0 0 0 .8.4c.4.2.9.8.9 1.3 0 1.2 0 2.4.2 3.5a5 5 0 0 1 0 1.7l.2.8-.2 3.5-.1 1.5c0 1.4-.9 2.6-1.7 3.7a.8.8 0 0 0-.2.5l1 4.5 1.5 4.6c.2.5 0 .9-.4 1.1l-1.4.7a1 1 0 0 0-.4.6l-.2 5.6.2 3.4v9.3c0 .8 0 1.5.2 2.2.2.9 0 1.7-.1 2.6-.2 1 .2 1.9.2 2.8v1.5l-.2 3.2c0 .5 0 1-.4 1.4-.4.4-.5.9-.5 1.5s.3.8.7 1a1.4 1.4 0 0 1 .5 1c0 1.2 0 1.2-1 1.7-.3 0-.5.3-.7.5a3.6 3.6 0 0 1-.8.5 5.2 5.2 0 0 1-1.4.3 2.4 2.4 0 0 1-1.2-.2c-.2-.1-.3-.6-.3-.8.3-.7-.1-1.2 0-1.9v-.1c.3-.9-.5-1.6-.5-2.4 0-.7.1-1.4.3-2 0-.6.2-1 .3-1.6a.7.7 0 0 0 0-.3l-.9-2h-.7c-1 0-1.5-.5-1.9-1.3 0-.4-.2-.7-.7-.6s-.7.4-.6 1l-.1.8c0 .5-.3.5-.7.4l-.1-2.5h-.7l-1.1-7.1h-.2l-.2.6-.6 3.4v2.7l-.4 3.1-.2 1.5.1.8c.7.8.3 1.6 0 2.5 0 .3-.1.5-.3.8a2.6 2.6 0 0 0-.3 1.5c0 .9 0 1.8-.2 2.7l-.4.4c-.9.3-1.9.5-2.6 0a18 18 0 0 1-2.4-1.5c-.6-.5-.4-1.2.3-1.6.6-.5.8-1 .5-1.8-.1-.5-.2-1 .3-1.4.3-.3.4-.7 0-1.1-.4-.6-.3-1.3-.3-2l.2-3.3h-.2v1.3a17.8 17.8 0 0 1-.1 1.5.4.4 0 0 1-.4.3l-.3-.3c0-.7-.3-.6-.7-.4-.7.2-1.3.4-2-.1-.5-.4-.7-1.2-.1-1.6.8-.7.5-1.5.3-2.2-.3-2-.8-3.9-.9-5.8a7.3 7.3 0 0 0-.1-1 4.8 4.8 0 0 0-1 0 2.5 2.5 0 0 1-1.3-.2 2.5 2.5 0 0 1-1-.8 1 1 0 0 0-.7-.3c-.6-.1-1.3 0-2-.2l-.4-.5v-.7c0 .3.1.6.3.8l.2-1.3v-.3l-.3.1a6 6 0 0 0-.3.8v-.7c.5-.4.4-.9.3-1.4l-.1-2.6c-.2-.1-.5-.3-.5-.5l-1.4-5.9-.6-2.8-1-4.7-.6-3.3-.4-2.8-.4-2.2a86.3 86.3 0 0 1-.5-4c-.3-2.2-.5-4.5-1.1-6.7-.4-1.3-.9-2.5-.8-4 0-.6-.2-1.3-.5-2-.6-1.6-.8-3.3-1.2-5a281.2 281.2 0 0 0-1.5-6l-.7-2.3c-.3-1.2-.5-2.5-1-3.7-.4-1.3-.4-2.7-.8-4.1a4.6 4.6 0 0 0-.1-.5l-1.5 5.4-1 3.8-.2.5c-.2.6 0 1 .7 1.2a1.2 1.2 0 0 1 .8 1.3l.2.9c.1 1 .3 2.1.3 3.2l.3 5v.7l1.7 1 .4.5 1 2c.2.3.3.6.3 1 0 .7.2 1.2.4 1.8.3.6.3 1.3 0 2l-.1 1c0 1.7-.1 3.3-.6 5a2 2 0 0 1-1.1 1.3c-.3.1-.3.3-.2.6l1.4 5.4 1 5.3.3 1.8-2 1a.7.7 0 0 0-.3.5l.2 3.2.1 4.1.1 4v1l.1 3.7a.6.6 0 0 1 0 .3c-.3.7-.2 1.4.1 2l.3 1.5c0 2 0 4 .3 6 .1 1.8.5 3.7.7 5.5l.5 4.5c.5.3 1.2.4 1.6.8 1.4 1.6 1 2.4-.6 3.3l-1.8 1-.1.2c-.3.9-1 1-1.8.9v.1h-.3zm5.6-169l-.1 2 .5-1 .1-1a3.6 3.6 0 0 0 0-.8l-.3.4a2.6 2.6 0 0 0 0-.7l-.5-.4-.3.4.6 1.1zM74 43.4l.4-.3 2-1.9c.7-.8 1.6-.8 2.6-.5l3.6 1c1.2.5 2.4.8 3.6.6l.3-.2.7-3.1c0-.3 0-.4-.4-.5a5 5 0 0 1-1.1-.2c-1.3-.4-2.5-1-3.7-1.5l-2.5-1-2-.6h-.6c-.8.1-1.7.4-2.4.7-.8.3-.8.3-.1.8L72.5 39c-.3.3-.5.7 0 1 .1.2.5.2.9.4 0 .5.5.4 1 .2l1.6-.4v.2c-.8.8-2 1.5-2 3zM89.2 35h.2l.2-2.6.8-4.7-.2-1v-1l1-1.6c-1.3-1-3.2-.9-4.6-2l-.3 1.6c0 .7.3 1.4.4 2.1l1 3.8c.2 1.2.6 2.3 1 3.5 0 .6.3 1.3.5 1.9zm18.3 1.1l.7-.2a1.3 1.3 0 0 0 .3-.3l-.4-.3c-1.4-.2-2.9-.2-4.2.5a25 25 0 0 0-3 2c-.5.3-.8.9-1.3 1.4h2a7.1 7.1 0 0 1 1.5.1c.4.1.6.2 1 0a.8.8 0 0 1 .4-.3h3.4c.2 0 .4 0 .5-.2l.7-.3h.8c.2 0 .4-.4.4-.5-.2-.3 0-.8-.4-1l-2.4-.9zm18.3 107.5c-.2 1-.7 2-.4 3.2l.5 2.2c.2 1.4.2 2.8.5 4.2l1.5 6.6c.3 1.2.8 2.4 1.2 3.4a6.1 6.1 0 0 0 0-2.7c-.2-.8-.5-1.8-.4-2.6.1-1.5-.1-3-.4-4.4l-.7-4.9c0-.6 0-1.2-.3-1.7l-1.5-3.3zM108 96.3h.2l-.3-3.8a26 26 0 0 1 0-2.7c0-.6 0-1.1-.2-1.7a1.2 1.2 0 0 1-.1-.5v-3.7c0-.6.2-1.2 0-1.8a8.8 8.8 0 0 1 0-4.6l-1.7.2V79l.1 2.6v1.8c.1 1-.2 2.1.2 3.1.2.3 0 .7 0 1a8 8 0 0 0 0 1l.5 2.7-1-.9a3.2 3.2 0 0 0 0 .7l.6 1.8a71.5 71.5 0 0 0 1.2 3.1l.5.4zM96.5 21.7L92 24c.3.3.5.8.8 1 1 1 .7 1.4.2 2a1.6 1.6 0 0 0-.4 1.3l.3 2.2.4 1.6 4-9.2-.7-1.2zm11.2 116.8c.5.5 1 .7 1.2.5.5-.3.4-.7.2-1.2a6.6 6.6 0 0 1-.6-1.4l-1.3-5c-.2-.8-.5-1.7 0-2.7a1.4 1.4 0 0 0-.1-1.2 5 5 0 0 1-.7-2c-.1-1-.6-2.2-.6-3.3 0-1.3-.2-2.6-.4-3.9l-.2-1.6h-.2a3.8 3.8 0 0 0 0 .5l.3 4.6.5 4.6a1.7 1.7 0 0 0 .4 1c.5.5.3 1 .2 1.6-.1.2-.3.6-.2.8l1.4 6.2.8 2.3-.7.2zM86.2 8.2h1c1.3-.2 2.5-.6 3.7 0a.5.5 0 0 0 .4-.1c.8-.6 1.8-.4 2.7-.4.7 0 .7.2.8-.6l.2-.3c.7-1.5.4-2.3-1-3.2a1.2 1.2 0 0 0-.4 0V4l-.1 1c-.2.4-.2.6 0 1v.5c-.5.3-1 .7-1.6.4a.8.8 0 0 0-.4 0c-1 .2-1.9.4-2.8.2-1.3-.2-1.7 0-2.5 1.1zm16.4 48.9l1.4-.2c.5 0 .4-.2.3-.6a11 11 0 0 1-.3-1.8c-.1-.7 0-1.3-.2-2a1.2 1.2 0 0 0-.6-.7l-1.8-.3c-.2 1-.1 1.2.6 1.8l.3.6.4 1.6.7 1-.5-.1c-.6-.2-.7-.2-.8.4 0 .5 0 1 .2 1.5l.7 1 .6-.2-.4-.3-.5-.5a7.8 7.8 0 0 1-.1-1.2zm-3-30h.5l.6-.6-.3-.4-2.8-2s-.1 0 0 .1c0 .7.2 1.3.3 2l.3.4.8 1.4c.1.2.2.4 0 .7l-2.4 4.7a1.4 1.4 0 0 0-.1.5h.2l.3-.5 2.2-3.7.8-1c.3-.6 0-1-.4-1.6zm7.2 2.6h.2l.2 1.6c.1.5.3 1 .9 1.4.3.2.6.7.8 1l.6.8h.1a6 6 0 0 0 0-.8L109 32l-.7-2.7a.9.9 0 0 0-.7-.6.9.9 0 0 0-.8.2c-1.2 1.2-1.7 2.9-2.3 4.4-.2.3-.1.7-.1 1l2.3-4.7zm9.5 122.1a6.8 6.8 0 0 0 .5-3.4l-.2-2.7v-.7-2.3c0-1.4.2-2.7.3-4 0-.5-.1-.8-.6-.8l-.2.6c0 1.6-.4 3.1-.3 4.8v1.9c.1.4.3.8.3 1.3v3.8l.2 1.5zm-8.6-111a7.2 7.2 0 0 1 1.5 4.5c-.9-1-.9-1-1.3-.9v.2c.3.9.8 1.7.3 2.7l.2.3a.6.6 0 0 0 .5 0l.5-.8c.4-.6.9-1.3.7-2.2l.3-.7.3-1.3H110.5l-2-2c-.3-.2-.5-.1-.7.2zm-1-12.3v-.2l-2-.7-2.5-.6c-.5-.1-1-.4-1.3.3-.1.3-.3.7-.2 1a1 1 0 0 0 1 .6l.7.4.4.4c.4-.2.2-.4 0-.6l-.7-1v-.3a.2.2 0 0 1 .2 0c.3.2.6.4.7.7.3.5.6.5 1.1.4l1-.2-.4.5a.5.5 0 0 0 0 .4.4.4 0 0 0 .4 0l1.7-1.1zm-13.1 44h-.1v.3l1.1 2.2c.4.6 1 1.2 1.7 1.6a4.4 4.4 0 0 0 2.3.5l3.7-.2h2l1.1-.3-.2-.2-3-.1h-3.5c-1.8.2-3-.7-3.8-2.2-.3-.6-.9-1.1-1.3-1.7zm14.3 72l-1.5-1c.4 1.4 1.6 1.6 2.6 1.4.7 0 .8-.6.4-1l-1.7-2-1.3-1.9-.4-.2-.3.4c0 .5 0 1 .3 1.4.6 1 1.3 2 2 2.8zM99.2 39.8l.5 1c1.2 1.2 2.2 2.7 3.8 3.6.4.3.8.7 1.4.5l-.7-1.1a12 12 0 0 0-3-3.2c-.5-.4-1.1-.9-2-.8zM91.1 9.8c0-.7-.1-.9-.5-.8-.5 0-.7.3-.6 1v.2a11.3 11.3 0 0 1-.3 1.7c0 .2-.4.3-.6.5a.8.8 0 0 0-.2.5l.4.2c.3 0 .5.2.8.3.3.2.5.2.8 0 .2-.2.5-.2.7-.3.2-.1.5-.2.5-.4s0-.6-.2-.6c-.5-.1-.6-.5-.7-1l-.1-1.3zm2 2l.1.2.6.2c.5.2 1.3 1 1.2 1.3 0 .4.1.7.5.9.3.2.4.5.2.9l-.3 1.1c.7-.4 1.2-2 .9-2.7-.4-.9 0-1.7.1-2.4.2-.6.2-.9-.3-1.2l-.3.5c-.3.6-1.4 1.2-2 1.1a1.7 1.7 0 0 0-.6.2zm-2.8 50h-.2l-1 4.6h2.7l-1.5-4.6zm-13.7 15v.2h3.8l2-.1a6 6 0 0 0 3-1.2c.9-.6 1.3-1.4 1.6-2.3a1 1 0 0 0-.5.3c-.6.8-1.2 1.5-2 2-1.2.5-2.3.6-3.4.7l-3.3.1c-.4 0-.8.2-1.2.4zm4.6 30.1c2-.3 4-.1 6 .2-.8-1.5-2-1.6-3.3-1.5-1 0-2 .4-2.7 1.3zm-5.6-74.8v.1l.1.2c.5.3 1.1.5 1.6.9l1.2.8 1 1c0-.2.1-.3 0-.4a165.7 165.7 0 0 0-1.4-3.3c0-.2-.3-.3-.4-.4-.3-.2-.6-.3-.8 0 0 .2 0 .6.2.8l.6.9-2-.6zM86 10.9c-.4 0-.6.4-.5.8 0 .8.3 1.5.8 2.1.4.4.7.3.8 0 .3-.8 1-1.2 1.7-1.7l.2-.4a1.8 1.8 0 0 0-.5 0 1.8 1.8 0 0 1-2-.4 2.6 2.6 0 0 0-.5-.4zM90 59c.1-.4.2-.5.1-.6 0-.6-.3-1.1-.4-1.7-.4-1.7-.7-3.5-.8-5.3a.9.9 0 0 0-.3-.5c0-.1-.4 0-.4 0l-.1.6c.2 1.4.4 2.7.8 4 .2 1.2.3 2.3 1.1 3.4zm14.7 2.4v-.2c-.4-.3-.8-.6-1.2-.7l-2.7-.4c-.7-.1-1.5-.3-1.8-1.2a9.1 9.1 0 0 0-.8-1.1c-.1.3 0 1.6.4 2 .6.5 1.4.9 2.2 1 1.2.3 2.4 0 3.5.7h.4zm18.6 45.5h2.9c1 .1 1.9.5 2.7.7-.8-1.3-1.9-2-3.3-1.9-1 0-1.8.4-2.3 1.2zm-16.2-31v.2c.2 0 .6.2.8.1.3-.1.9-.1 1-.7l-.1-.9a22.5 22.5 0 0 0-.5-2.1c0-.3 0-.7-.6-.6v1.9c-.1.7.3 1.6-.6 2zm-5.3 21.7h.2l-.1-2.3a70.7 70.7 0 0 0-.8-4.6c-.1-.5 0-1-.8-1.4.4 2.9 1 5.6 1.5 8.3zM88 36.6l.2-.1-2-4.2-1.5-2.5a5.6 5.6 0 0 0-.5-.7L84 29v.4c.4.7 1 1.3 1.3 2l2.1 4.2.8 1.1zm18 112.2h-.2c0 .3-.2.5-.1.7l.5 1.7.3.4c.4 0 .4.4.5.7a.5.5 0 0 0 .4.3c.6-.1.8-.5.4-1a430.3 430.3 0 0 0-1.5-2.5l-.2-.3zM82.8 94.5c-1.6-.8-3.6-.5-4.4.6h3.9l.5-.6zm0-38.2l-.3 1.3c-.2.7-.5 1.2-1.1 1.4-.3 0-.7.1-1 .3a9.8 9.8 0 0 0-1.2.8v.3h.3l1.2-.6 1.2-.4c1-.6 1.5-2.1.9-3.1zm-4.1-14.7l-.1-.3-1.3.6c-1.2.7-1.3 2.2-2 3.2l.2.2 3.2-3.7zm15.8-25.7c.4-1.3-.4-2-1-2.6-.3-.2-.7-.2-.7.1-.1.4-.7.8-.2 1.3l1.2.3c.2 0 .5 0 .4.4l.3.5zM97 4.6c-.5.5-.3 1-.3 1.4.1.9.4 1.7.3 2.6l.2 1c.6-.5.9-1.4.5-2a4.3 4.3 0 0 1-.5-2.1l-.2-1zm6.6 35.8l1 .9.6.5 1.5 1.7c0-1.1-.8-1.9-1.4-2.7-.3-.5-1.2-.7-1.7-.4zm6.4 107.2v-.2a1.4 1.4 0 0 0-.3 0l-3.6.3c-.2 0-.3.2-.4.3.2.1.3.4.5.4a21.9 21.9 0 0 0 2.6-.3c.4 0 .8-.3 1.2-.5zM89.3 20.2l.6.3c1.1 0 2.3.1 3.4-.4.5-.2.9-.8.7-1.1l-1.5.8-2.8.2a2.3 2.3 0 0 0-.4.2zm-3.5-16h-.2L84.9 8l.3.6c.5-.6.6-1.3.6-2 .1-.6-.2-1.3.2-2 0 0 0-.3-.2-.4zm-2 8h-.2l-.3.3c0 .5 0 1 .5 1.3h.5l.3 1.3c.4-.7.4-.7.1-1.2a2.5 2.5 0 0 1-.1-.5l-.4-1.6H84l-.3 1.2a2.4 2.4 0 0 1 0-.4v-.3zM92 82h.2c.3-2.1 0-4.2 0-6.3H92V82zm3.6-78.7l-.2.1h.5c.2-1.3-.4-1.9-2-2 0 .2.2.4.4.6l1.3 1.3zm4.6 84.8l.3.2.1-.4-.7-3.7h-.2c.1 1.3 0 2.6.5 3.9zM89.7 17.6c.6.9 2 .6 2.6 0-.4-.5-2.1-.5-2.6 0zM97.3 40v-.2L95 39a.5.5 0 0 0-.4.2l.1.5 2 .4h.6zm-5-37.9c-.6-.9-2.7-1-3.2-.5l3.2.5zm-4.5 39.6l.2.1.2-.4.4-1.6.1-.7-.3-.3-.3.3-.1 1-.2 1.6zM90 69c.3.1.6.3 1 .3h1.3l.2-.4a2.5 2.5 0 0 0-.4-.2 7.8 7.8 0 0 0-.8 0c-.5 0-1-.2-1.3.3zM87.1 3.7c.9.1 1.7 0 2.3-.7-.6-.5-1.8 0-2.3.7zM88 17h.2l-.2-1a5.1 5.1 0 0 1-.1-1l.2-1.2c-1 1.3-1 1.8-.1 3.2zm-5 9.9v.2c.6.1 1 .1 1.4-.5l.2-.4-.6-.2c-.3 0-.4.2-.6.3.2.3 0 .3-.2.4l-.3.2zM91.1 44c-.2.1-.5.3-.5.5 0 .4.2.8.6.7a1 1 0 0 0 .6-.6c0-.3-.1-.6-.7-.7zm-13.4-.6c.6.1.9-.1 1-.6.1-.3.5-.6.7-.8l1-.4-.5-.3a7 7 0 0 0-2.2 2.1zm5.1 38.3h-.1l-.2 3 .6.3-.3-3.3zM90.1 15c-.3-.4-1.1-1-1.3-.7-.2.2-.3.6-.4 1L90 15zm17.4 123.6c-.3-.2-.4-.5-.5-.4a7.2 7.2 0 0 0-1.4.4l-.1.5.4.3.3-.4c0-.3.3-.6.7-.4h.6zm1.4 16.6l.2-.1a4.8 4.8 0 0 0-.4-.6c-.2-.1-.5-.2-.5-.4 0-.7-.6-.7-1-1-.2.6.2.6.5.7 0 .9.8 1 1.2 1.4zM94.2 20.3c1-.7 1.7-1.5 1.7-2.6l-.8 1.3c-.2.5-.9.6-1 1.3zm0-18c-.6-.6-1.3-1-1.9-.8.4.6 1.4 1.1 1.9.8zm-6.5 1.8c-.7 0-1.1.6-1 1.7h.3l.7-1.7zm1 64l-.4-.1a679.4 679.4 0 0 0-.7 2.4h.2c.8-.6.4-1.6.9-2.3zm8.7-28l1.5 1v-.8a1.1 1.1 0 0 0-1.5-.2zM94 37c.6 0 1.6-1.2 1.6-1.9-.7.5-1 1.2-1.6 2zM91.1 1l2.3.5C93 .7 92 .5 91 1zM92.8 48l-.6-.5-.7.6.5.4c.3 0 .5-.2.8-.5zM76 34.5c-.7-.8-1.4-1-1.9-.6.5.3 1 .6 1.8.6zm33.9 5c0 .5 0 1 .2 1.3 0 .3.3.4.5.1.3-.3-.1-1.2-.7-1.3zM87.1 18.8c.1-.9-.4-1.4-.8-2-.2.5.2 1.3.8 2zm8 29.2l.5.4.7-.6-.5-.4c-.3 0-.4.3-.7.6zm-1.5.5c.4 0 .9 0 .8-.6 0-.2-.3-.4-.4-.4-.4.2-.6.5-.4 1zm11 31c-.5.4-.3 1.2.5 1.7l-.5-1.8zm-13-22.7v.2l.3.4.9-.1v-.3a.5.5 0 0 0-.2-.2h-1zM105 30.2v-.3h-.7c-.1.3-.2.8-.1.9.5.3.4-.5.8-.6zm.3 112.7c.4 1.1.8 1.7 1.2 1.6-.3-.5-.4-1.2-1.2-1.6zM89.6 21.1v.2c.7.5 1.3.6 2 .3l-2-.5zm-6 7.3c-.7-1-.9-1-1.3-.6.5.1.5 1 1.3.6zm5.9 16.5c.3-.3.9-.3.7-.9l-.8-.1v1zm-1.7 25.9h-.2l-.6 2h.1c.6-.5.4-1.4.7-2zm19.7-.8l-.3.5.4.7c.2 0 .4-.2.4-.3a8.8 8.8 0 0 0-.5-1zM106 48l1 .3.3-.4c0-.2-.9-.3-1.3.1zM98 14c-1 .6-1.3 1-1 1.6l1-1.6zm-5.4 31.5l.2.2c.2 0 .5-.1.6-.3.1-.2 0-.4-.2-.7h-.2l-.4.8zM75.9 30.4c.2.3.4.6.9.5 0 0 .1-.3 0-.4 0-.3-.6-.3-1-.1zm.6-1l.1-.3-.9-.5-.4.1.2.3.5.3.5.1zM106.8 67l-.4-1.2-.3-.2-.2.2c.2.4.2 1 .9 1.2zM74 46.7l.3.2.8-1v-.3h-.3c-.3.4-.5.8-.8 1zm-1-2.1c.5 0 .6-.1.7-.8-.6-.1-.8.1-.8.8zm35.4 54.1l-.4-.7-.3.3c0 .3.2.5.3.7l.4-.3zm-4.1 14.3l-.2.1.1 1 .2.2.2-.3v-.5a1.8 1.8 0 0 0-.3-.5zm3.1-16v.3l.6.4.2-.3c0-.2 0-.4-.2-.5l-.6.2zm9.4-3V94l-.7-.3c-.2 0-.4.2-.6.4l.1.1h1.2zM90.5 22.1a1 1 0 0 0 1.5-.3l-1.5.3zM106.7 69l.6.8c0-.1.3-.3.2-.4 0-.3-.2-.6-.8-.4zM72.4 41.2l.1.1.9-.6v-.2h-.7c-.2.2-.2.5-.3.7zm1.3 7.1h-.2l.3.7h.5a1 1 0 0 0-.1-.4 3.2 3.2 0 0 0-.5-.3zM98.3 9.1l-.3 1.5c.6-.5.6-.7.3-1.5zm7.1 36c-.5.6-.4.7.6 1l-.6-1zm-31.9 3.1c.6 0 .6-.4.7-.7l-.2-.2-.2.1c0 .3-.2.5-.3.8zm30.1 61.3l.1 1 .2.2.2-.2c0-.4 0-.7-.5-1zm-13-50.8l-.5.4.3.7h.2v-1zM95.9 10c.6-.2.6-.3 0-.9v1zm-3.3 12.3l-.2-.2-1 .5v.2l1.2-.5zm17 12.4h-.2a3 3 0 0 0 0 .4v.5h.2l.1-.5-.1-.4zm68.4 83.4l-.1.3-.1 3.8a14.4 14.4 0 0 1-.5 2.2c-.2.9-.7 1.6-1 2.5-.3.9-.2 2-.2 3 0 .4.3.8.5 1.3.5 1 .4 1.7-.5 2.4-.6.5-.4 1.2-.3 1.7.3 1.2.3 2.4.1 3.6l-.3 4-.6 2.9a23 23 0 0 0-.3 2.6l-.1 4.4-.3 1.2c-.2.9 0 1.7.3 2.5.3 1.1.2 2.2 0 3.3v2.8a51.8 51.8 0 0 1-.3 2.8 342.7 342.7 0 0 1-.8 5.9l-.5 2.7a1.7 1.7 0 0 0 .3 1.6c.4.5.8 1 .7 1.8 0 .5-.3.7-.8.8-1 .1-1.8-.1-2.6-.4a1 1 0 0 1-.1.3l-.5.6-.2-.6c0-.7 0-1.3-.5-2-.5-.6-.5-1.4 0-2.1.1-.4.5-.7 0-1a.5.5 0 0 1 .1-.4c.4-.3.6-.4.4-1-.2-.2 0-.7.1-1a16.2 16.2 0 0 0 0-1.8l-.4-3.7v-2.5-2.5a76.4 76.4 0 0 0 0-3.5c0-.4-.3-.7-.4-1a2.4 2.4 0 0 1 0-.8c0-.7.4-1.5-.2-2.2a.6.6 0 0 1-.1-.3c0-1.7 0-3.3-.2-5a40 40 0 0 0-.7-4.8 7 7 0 0 0-.5 1c-.3 1.4-1 2.6-1 4a2.3 2.3 0 0 1-.3.7 5.5 5.5 0 0 0-.5 2.6v.9c-.6 1-.3 1.9-.2 2.8a7.2 7.2 0 0 1-.3 3.6 1.7 1.7 0 0 0 .2 1.7c.5.6.1 1.2 0 1.8-.2.4 0 .6.3.9a1.8 1.8 0 0 1 .9 1.9 1.8 1.8 0 0 1-.3.6c-.2.3-.6.4-.9.6-.5.4-1 1-1.8 1a.7.7 0 0 0-.5.4c-.4.7-.7 1.4-.5 2.4a1.6 1.6 0 0 1-.3 1.2c-.5.7-.3 1.4 0 2 .1.4.1.8-.1 1.1l-1 1.5a.8.8 0 0 0-.1.4v1.2c0 .4 0 .7-.7.8l-.2-2.5c-.3.3-.7.5-.9.9-.6 1.4-1.7 1.2-2.9 1a15.1 15.1 0 0 1-2-.5c-.5-.2-.6-.6-.3-1h.2c.8.1 1.2-.5 1.8-1 .4-.2.7-.7 1-1.1l.1-.5.2-.5c.5-.6.8-1.1.5-1.9 0-.2.3-.6.5-.8.4-.4.3-.9.3-1.3l-.1-2.6.2-3.6.5-4.8v-1c0-.3 0-.6.2-1 .5-.6.5-1.4.4-2.2v-1l-.4-4V147c0-.2-.2-.3-.3-.5a245.3 245.3 0 0 1-.9-3.6l-.5-2.5a2 2 0 0 0-.2-.5c-.7-1.2-.8-2.5-1.1-3.8l-1-3.7-.4.6c-.3 1.2-.5 2.4-1 3.5-.6 1.8-.7 3.6-1 5.3l-.8 4.3a1.9 1.9 0 0 0 0 .4c0 1.6 0 3.2-.4 4.7V155a1.9 1.9 0 0 1-.4 1.7c-.4.5-.3 1 0 1.6.2.5.5 1 0 1.6l.1.3c.5.5.3 1 0 1.5a1.4 1.4 0 0 0-.3 1.5c.4.7.1 1.4 0 2v.3c0 .9 0 .8-.8 1-.7 0-1.4.2-2-.2l-.6-.3a6.3 6.3 0 0 0-1-.5c-.5-.1-.9-.4-1-.9a1 1 0 0 1 .4-1.2c.8-.6 1-1.6 1-2.6a.4.4 0 0 0-.2-.3c-.8-.4-.8-1.2-1-1.9a5 5 0 0 1 .3-3.5c.2-.7.2-1.6 0-2.3a8.6 8.6 0 0 1-.1-3.4c.1-1.4.3-2.8.2-4.3-.2-1.8 0-3.6 0-5.4v-2l.1-3a135.8 135.8 0 0 0 0-3.3V129l.1-1.6-1.8-.3c-.6 0-1-.4-.7-1a832.9 832.9 0 0 1 3-10.3c-1 0-1-1-1.3-1.7l-.8-2.8a7.1 7.1 0 0 1 0-3c.2-1 .4-2 .4-3 0-.8 0-1.6.2-2.3v-1c-.1-.6 0-.9.7-1.1 1-.4 2-.6 2.8-1.1l2-1.5.4-.4c.8-.3.9-1 .8-1.8v-1.8c-.5.1-.8-.2-.8-.7v-2-.7c-.2-1.5.2-3.7 2-4.4a8.2 8.2 0 0 1 2.5-.4c.9 0 1.7.8 1.8 1.6 1.4.6 1.8 1.4 1.4 2.9l-.4 2.7c0 .4-.5.7-.6 1a6.2 6.2 0 0 0-.1 1.8c0 1.2 1.1 1.6 2 2l3.6 1.3 1.5.6.5-.8a6.9 6.9 0 0 1 1.4-.7 6.7 6.7 0 0 1 1.2-.5c.9-.2 1.7 0 2.4.4 2 1 2.5 3.3 1.9 5 0 .1-.2.3 0 .4.5.8 0 1.4-.5 2-.4.5-.8 1.2-.7 2 .9-.3 1.5.2 2 .7l.3.3.7.6a1.5 1.5 0 0 1 1 1.5.6.6 0 0 0 .2.5l1.2.6c.6.3 1 .8 1 1.6l.2 2.6v2zm-25.2-21l2.6-.3h2.5c-.7-1.8-4.3-1.4-5.1.3zm12.4 12.3h.2c.3-.3.9-.7 1-1.2.2-.5 0-1.1 0-1.7-.2-.5-.3-.5-.8-.5l-.4 3.4zM4.5 110.9c-.8-.8-.3-1.6 0-2.5.5-1.3.8-2.7 1-4.2.2-1.9.6-3.8 2-5.1.7-.6 1.6-1 2.4-1.3l.8.3a.5.5 0 0 0 .6 0l3.6-1.4a7 7 0 0 0 2.1-1.6 2.6 2.6 0 0 0 .5-2c0-.4-.1-.8-.6-1-.2-.1-.2-.6-.3-1a25.5 25.5 0 0 1 0-2.5 4 4 0 0 1 .6-2.3l.2-.3c0-.7.5-.9 1-1.1 1.5-.6 3.7-.3 4.7.7.6.6.9 1.5 1 2.3-.1.9 0 1.7.2 2.6a2 2 0 0 1-.7 2.1c-.6.5-.6 1-.6 1.7 0 1 .4 1.7 1 2.4.4.4 1.1.6 1.7.8l3.8 1.6a.8.8 0 0 1 .4.4l.2 1.3.4 4.3-.2 4.2a28.6 28.6 0 0 1-.4 3c-.1.6-.4 1.2-1 1.6a.7.7 0 0 0-.1.6l1.5 6 1 4.3c.2.3.1.6-.3.7l-1.5.6c-.6.2-.8.6-.8 1a24 24 0 0 0-.3 3.1l.2 6v6.2c0 .8.3 1.7.3 2.6v1l.2 7 .2 3.4a11.6 11.6 0 0 1-.2 2c0 .4-.5.6-.8.7-.4 0-.6.2-.5.6l.5 1.3c.3.6.7 1.2.9 2 .1.6-.2 1-.9 1.1l-.7.2a.9.9 0 0 0-.5.3c-.5.7-.9.8-1.8.6l-1-.1c-.5-.1-.7-.5-.6-1v-.6c-.2-.8 0-1.5.1-2.3a2.6 2.6 0 0 0 0-.9c-.3-1-.7-1.8 0-2.9.2-.5.4-1.2 0-1.8a1.4 1.4 0 0 1-.1-.7l-.3-4.5-.2-1.5c.3-2.6-.3-5.2-1-7.7-.2-.6 0-1.2-.1-1.8a22.7 22.7 0 0 0-.3-1.9l-.7-3.8a2.7 2.7 0 0 0 0-.3l-.7-2.3a2.3 2.3 0 0 0-.2-.4 2 2 0 0 0-.1.5l-.1 3.3a7 7 0 0 0 .3 2.4c.2.7-.3 1.9-.9 2.3l-1 .8a.6.6 0 0 0-.2.5v7.6c0 .7-.4.8-.9.8h-.2v6l.4 3.6v2.5l-.6 3.7-.5 4c0 1.3 0 2.7.6 4l.5 1.2.3 1.5c0 .6-1 1-1.7.8a35 35 0 0 1-1-.3 3 3 0 0 1 0 .6 1.6 1.6 0 0 1-.4.4l-.4-.5v-2.2a.5.5 0 0 0-.2-.3c-.7-.8-.7-1.7-.4-2.7.2-.5.2-1 0-1.6l.2-1V166a12.2 12.2 0 0 0-.2-1.3c-1.2.1-2.5.2-3.4-.9a5.8 5.8 0 0 1-1-.3 1.4 1.4 0 0 1-.7-1.7.2.2 0 0 1 0-.1l1.4-1.2c.2-.2.4-.4.2-.7-.5-.7-.8-1.3 0-2 0 0 0-.4-.2-.5a5.4 5.4 0 0 1-.4-2.3v-5.8l-2.4.1-.9 4.1v2.8c.1 1.8.4 3.5 0 5.2a35 35 0 0 0-1 4.4v5.4c0 1 .2 1.9.4 2.8v1.2c-.2.6-.7.6-1.1.5l-.5.8a102.5 102.5 0 0 0-.5-.7v-.1H3c-.8.2-1.3-.3-1-1.1l.7-3v-1c-.1-.4 0-1 .1-1.4a6 6 0 0 0 0-1.9l-.5-3.3-.6-4.4a22 22 0 0 1 .7-6.6c.3-1.4.3-2.8.4-4.2a.4.4 0 0 0-.2-.3c-.9-.2-.8-1-.8-1.6l.4-3 .2-2.7a1 1 0 0 0-.4-.7c-.9-.9-1.7-1.8-1.9-3a2.8 2.8 0 0 1 .1-1.1c.2-.9 0-1.8 0-2.6 0-.7.2-1.4.3-2l-.2-1.3.3-5.4.3-5c0-1 .3-2 .4-3v-1.3c-.3-1.7.2-3.3 1.7-4l1.6-1zM17.4 95l5.6.4v-.1c-.3-.3-.6-.6-1-.7a6.8 6.8 0 0 0-3.7 0 7.1 7.1 0 0 0-1 .4zM2.5 131.7c.2 1.3-.7 2.5.3 3.7-.3-1.1.9-2.1.3-3.2v-.3a.5.5 0 0 0 0-.2h-.6zm2-8.2h-.2l-.6 4.3H4c.5-1.4.7-2.9.6-4.3zm-2 16.1h.1l.2-1.2c.2-.6 0-.9-.6-1l.2 2.2zm15.4-1.6c.5-.6.5-1-.1-1.2l.1 1.2zm40.7-42c.6.3 1 .8.7 1.7-.2.6.5.7.9.9.8.4 1.7.8 2.1 1.6.3.6.5 1.2.5 1.8v2.6l.1 3.3v1.7c.1.6.1 1.2.3 1.7.4 1 0 2 0 2.9v1.2l-.1 2.3.2 3.1v1.3c-1 1-.3 2 0 3 0 .6-.6 2.2-1.2 2.6l-1 .8v2l.2 2.5v2.3l-.1 4c0 .8-.3 1.7-.4 2.7v.1c-1.2 1-.3 2.1-.4 3.2l.1.5a32.9 32.9 0 0 1-.8 7c-.4 1.4-.7 3-.3 4.5.2.5 0 1 0 1.6l.6 3c.1.5.5 1 .8 1.5.2.4 0 .6-.2.9a1.6 1.6 0 0 1-2 .2 1.4 1.4 0 0 0-.3-.1c-.2.3-.2.8-.9.5l.2 3.6c.1 1.4-.3 2.6-.7 3.9-.3 1 0 1.7 1 2.2.6.3.7.5.4 1.2-.2.9-.7 1.5-1.7 1.5l-.5.2c-.2.6-.7.6-1.1.7a8.1 8.1 0 0 1-2 0c-.5-.1-.3-.6-.3-1v-.5c-.3-.6 0-1 .1-1.6 0-.5-.2-1 0-1.4 0-.8-.5-1.4-.7-2l.2-1.6.3-.8a1 1 0 0 0 0-1 1.2 1.2 0 0 1-.2-.6 352.7 352.7 0 0 1-.2-3.8v-.7-2.7l-.4-.8a1 1 0 0 1 0-.6c.2-.7.3-1.1-.2-1.8-.4-.4-.5-1.1-.5-1.7a20.7 20.7 0 0 0-1-5.3c-.3-.5-.4-1-.6-1.7a.8.8 0 0 0-.2-.4l-.7 3.7c-.2 1.7-.5 3.4-.5 5v.3c.4.7.2 1.6.2 2.4 0 1 .3 2 .4 3.1.2.8-.1 1.4-1 1.5-.2 0-.3 0-.4.4 0 .2-.2.3-.4.6-.1-.4-.1-.8-.7-.8-1.3 0-1.7-.8-1.3-2.1.3-1 .3-2.1.4-3.2a3.9 3.9 0 0 1 .2-1c.5-1 .2-2-.1-3a4.2 4.2 0 0 0-.2.4l-.8 2a.5.5 0 0 0 0 .4c.4.5.2 1 0 1.4a3.6 3.6 0 0 0-.3 2.7v.7l-.4 3.2-.4 2 .1 1.4c.1.7.4 1.5.3 2.2 0 .8-.3 1.6-.5 2.4a6.8 6.8 0 0 0-.2 1l-.1 2.1a.8.8 0 0 1-.8.8c-.9.1-2 .2-2.6-.4l-2.1-1.2c-.6-.5-.7-1.1.2-1.7.8-.5.8-1.3 1.2-2l-.2-.6c-.4-.6-.4-1.2.1-1.6.4-.3.4-.6.3-1l-.5-3.6-.2-1.5a9.7 9.7 0 0 1 .2-2.2 5.7 5.7 0 0 0 .1-1.6l.3-2.4.2-2.3.3-4.4-.2-2.9V146l.4-5.3c0-.5 0-1-.5-1.2-.8-.4-.3-1.1-.2-1.6l1-5.4.6-3.3.3-2.2a1.1 1.1 0 0 0-.3-.6 8.7 8.7 0 0 1-1.3-4.2l-.3-3.7c0-1 .3-2.1.4-3.2l.2-2.2.4-.7c.9-.6 1.8-1.3 2.9-1.5.5-.2.7-.4.7-1l.2-3.1c0-1 .2-1.9 0-2.8-.2-1.5.5-3.4 1.7-4.3l.7-.7.8-1 .2-.6.3-.7c.2-.5.4-1 .2-1.5v-1.3-.2c.6-.3.5-.9.4-1.3-.1-1 .6-1.8.8-2.8l.4-1c.8-1.2 1.6-2.5 3.3-2.6.5 0 .9.2 1.3.3h.5c1-.2 1.6.3 2.1.9a6.6 6.6 0 0 1 1.6 4.4v2c0 .5.4 1 .5 1.5v.9zm-12 12.1l5.1.6c0-.4-.3-.6-1.5-1.2-1-.4-3.2 0-3.5.6zm13.9 11h-.1a4.2 4.2 0 0 1-.2.7c-.4.7-.3 1.3 0 2 .2.4 0 .8.1 1.2v.5c.2 0 .4-.3.5-.5v-.8l-.2-.6-.1-2.4zm.8 6.3c-.8.1-1 .9-.3 2.2l.3-2.2z" fill="#222"/></svg>