<svg width="24" height="24" fill="none" xmlns="http://www.w3.org/2000/svg"><path d="M16 12a4 4 0 0 1-8 0 4 4 0 0 1 8 0zm2.16 0A6.15 6.15 0 0 0 12 5.84 6.15 6.15 0 0 0 5.84 12 6.15 6.15 0 0 0 12 18.16 6.15 6.15 0 0 0 18.16 12zm1.68-6.4c0-.8-.64-1.44-1.43-1.44a1.44 1.44 0 1 0 1.43 1.43zM12 2.15c1.75 0 5.5-.14 7.08.48.54.22.95.49 1.37.9.42.43.69.84.9 1.38.63 1.58.5 5.33.5 7.08s.13 5.5-.5 7.08a3.83 3.83 0 0 1-.9 1.37 3.83 3.83 0 0 1-1.37.9c-1.58.63-5.33.5-7.08.5s-5.5.13-7.08-.5a3.83 3.83 0 0 1-1.37-.9 3.83 3.83 0 0 1-.9-1.37c-.63-1.58-.5-5.33-.5-7.08s-.13-5.5.5-7.08c.21-.54.48-.95.9-1.37a3.84 3.84 0 0 1 1.37-.9c1.58-.63 5.33-.5 7.08-.5zM24 12c0-1.66.01-3.3-.08-4.95-.1-1.92-.53-3.63-1.94-5.03C20.58.6 18.88.17 16.95.08 15.3-.02 13.65 0 12 0 10.34 0 8.7 0 7.05.08 5.13.18 3.42.6 2.02 2.02.6 3.42.17 5.12.08 7.05-.02 8.7 0 10.35 0 12c0 1.66-.01 3.3.08 4.95.1 1.92.53 3.63 1.94 5.03 1.4 1.41 3.1 1.85 5.03 1.94 1.65.1 3.3.08 4.95.08 1.66 0 3.3.01 4.95-.08 1.92-.1 3.63-.53 5.03-1.94 1.41-1.4 1.85-3.1 1.94-5.03.1-1.65.08-3.3.08-4.95z" fill="#FCFCF9"/></svg>