<svg width="56" height="56" fill="none" xmlns="http://www.w3.org/2000/svg"><g filter="url(#filter0_d)"><circle cx="28" cy="26" r="24" fill="#F8F8F8"/><path d="M32 26a4 4 0 0 1-8 0 4 4 0 0 1 8 0zm2.2 0a6.1 6.1 0 0 0-6.2-6.2 6.1 6.1 0 0 0-6.2 6.2 6.1 6.1 0 0 0 6.2 6.2 6.1 6.1 0 0 0 6.2-6.2zm1.6-6.4c0-.8-.6-1.4-1.4-1.4s-1.4.6-1.4 1.4.6 1.4 1.4 1.4c.8 0 1.4-.6 1.4-1.4zM28 16.2c1.8 0 5.5-.2 7 .4.6.3 1 .5 1.5 1 .4.4.6.8.9 1.3.6 1.6.4 5.3.4 7.1s.2 5.5-.4 7a3.8 3.8 0 0 1-1 1.5 3.8 3.8 0 0 1-1.3.9c-1.6.6-5.3.4-7.1.4s-5.5.2-7-.4a3.8 3.8 0 0 1-1.5-1 3.8 3.8 0 0 1-.9-1.3c-.6-1.6-.4-5.3-.4-7.1s-.2-5.5.4-7c.3-.6.5-1 1-1.5a3.8 3.8 0 0 1 1.3-.9c1.6-.6 5.4-.4 7.1-.4zM40 26v-5c-.2-1.9-.6-3.6-2-5a7.1 7.1 0 0 0-5-2H23c-1.9.2-3.6.6-5 2a7.1 7.1 0 0 0-2 5v10c.2 1.9.6 3.6 2 5a7.1 7.1 0 0 0 5 2h10c1.9-.2 3.6-.6 5-2a7.1 7.1 0 0 0 2-5v-5z" fill="#1A1A1A"/></g><defs><filter id="filter0_d" x="0" y="0" width="56" height="56" filterUnits="userSpaceOnUse" color-interpolation-filters="sRGB"><feFlood flood-opacity="0" result="BackgroundImageFix"/><feColorMatrix in="SourceAlpha" values="0 0 0 0 0 0 0 0 0 0 0 0 0 0 0 0 0 0 127 0"/><feOffset dy="2"/><feGaussianBlur stdDeviation="2"/><feColorMatrix values="0 0 0 0 0 0 0 0 0 0 0 0 0 0 0 0 0 0 0.25 0"/><feBlend in2="BackgroundImageFix" result="effect1_dropShadow"/><feBlend in="SourceGraphic" in2="effect1_dropShadow" result="shape"/></filter></defs></svg>