<svg width="54" height="37" fill="none" xmlns="http://www.w3.org/2000/svg"><path d="M13.03 0C5.84 0 0 5.68 0 12.67s5.84 12.67 13.03 12.67c7.18 0 13.03-5.68 13.03-12.67S20.2 0 13.03 0zm0 20.99a8.73 8.73 0 0 1-4.76-1.4 8.38 8.38 0 0 1-3.15-3.74 8.11 8.11 0 0 1-.49-4.81 8.26 8.26 0 0 1 2.34-4.26 8.64 8.64 0 0 1 4.39-2.28 8.79 8.79 0 0 1 4.94.47 8.51 8.51 0 0 1 3.85 3.07 8.16 8.16 0 0 1 1.44 4.62 8.22 8.22 0 0 1-2.51 5.89 8.7 8.7 0 0 1-6.05 2.44zM40.97 0C33.8 0 27.95 5.68 27.95 12.67V37h4.46V22.2a13.19 13.19 0 0 0 8.56 3.13c7.19 0 13.03-5.68 13.03-12.67C54 5.68 48.15 0 40.97 0zm0 20.99a8.73 8.73 0 0 1-4.75-1.4 8.38 8.38 0 0 1-3.16-3.74 8.11 8.11 0 0 1-.48-4.81 8.26 8.26 0 0 1 2.34-4.26A8.64 8.64 0 0 1 39.3 4.5a8.79 8.79 0 0 1 4.95.47 8.51 8.51 0 0 1 3.84 3.07 8.16 8.16 0 0 1 1.44 4.63 8.22 8.22 0 0 1-2.5 5.88 8.7 8.7 0 0 1-6.06 2.44z" fill="#FCFCF9"/><path d="M18.1 12.67c0 .98-.3 1.93-.86 2.74a5.04 5.04 0 0 1-2.28 1.82 5.2 5.2 0 0 1-2.93.28 5.12 5.12 0 0 1-2.6-1.36 4.9 4.9 0 0 1-1.38-2.52 4.8 4.8 0 0 1 .29-2.85 4.97 4.97 0 0 1 1.87-2.22 5.18 5.18 0 0 1 2.82-.83c1.34 0 2.63.52 3.58 1.45a4.87 4.87 0 0 1 1.49 3.49zm27.95 0c0 .98-.3 1.93-.86 2.74a5.04 5.04 0 0 1-2.28 1.82 5.2 5.2 0 0 1-2.93.28 5.12 5.12 0 0 1-2.6-1.35A4.9 4.9 0 0 1 36 13.63a4.8 4.8 0 0 1 .29-2.85 4.96 4.96 0 0 1 1.86-2.21 5.2 5.2 0 0 1 4.76-.46 5.08 5.08 0 0 1 1.65 1.07 4.92 4.92 0 0 1 1.1 1.6c.25.6.39 1.24.39 1.89z" fill="#FCFCF9"/></svg>