<svg width="36" height="36" fill="none" xmlns="http://www.w3.org/2000/svg"><path d="M29.414 14.35l-6-5.784C22.164 7.36 20 8.205 20 9.93v2.298c-1.769.075-3.501.263-5.032.723-1.465.44-2.628 1.108-3.454 1.985-1.005 1.068-1.514 2.41-1.514 3.99 0 2.48 1.382 4.518 3.536 5.816 1.565.945 3.552-.508 2.96-2.24-.647-1.892-.715-2.849 3.504-3.164V21.5c0 1.727 2.165 2.568 3.414 1.364l6-5.786a1.88 1.88 0 0 0 0-2.727zM22 21.5v-4.172c-5.362.077-9.063.932-7.404 5.78C13.366 22.365 12 21.02 12 18.925c0-4.393 5.38-4.779 10-4.815V9.929l6 5.785-6 5.786zm1.03 3.395c.309-.085.603-.21.875-.374.332-.199.762.033.762.41v1.712c0 1.065-.896 1.928-2 1.928H8c-1.105 0-2-.863-2-1.928V12.5c0-1.065.895-1.929 2-1.929h5.5c.276 0 .5.216.5.483v.18a.48.48 0 0 1-.315.448c-.571.214-1.1.463-1.586.747a.52.52 0 0 1-.261.071H8.25a.255.255 0 0 0-.177.07.237.237 0 0 0-.073.171v13.66c0 .065.026.126.073.171.047.046.11.07.177.07h14.167c.066 0 .13-.024.176-.07a.237.237 0 0 0 .074-.17v-1.044c0-.215.149-.404.364-.463z" fill="#1A1A1A"/></svg>