<svg width="56" height="56" fill="none" xmlns="http://www.w3.org/2000/svg"><g filter="url(#filter0_d)"><circle cx="28" cy="26" r="24" fill="#F8F8F8"/><path d="M42 18.3a9.9 9.9 0 0 1-2.8.8 5 5 0 0 0 2.1-2.7 9.7 9.7 0 0 1-3 1.2 5 5 0 0 0-3.7-1.6 5 5 0 0 0-5 5l.2 1A14 14 0 0 1 19.7 17a4.9 4.9 0 0 0-.7 2.5 5 5 0 0 0 2.2 4A5 5 0 0 1 19 23a5 5 0 0 0 4 4.8 5.2 5.2 0 0 1-1.4.2h-1a5 5 0 0 0 4.7 3.3 9.9 9.9 0 0 1-6.1 2.1H18a13.9 13.9 0 0 0 7.6 2.2c9 0 14-7.5 14-14v-.6c.9-.7 1.7-1.6 2.4-2.6z" fill="#1A1A1A"/></g><defs><filter id="filter0_d" x="0" y="0" width="56" height="56" filterUnits="userSpaceOnUse" color-interpolation-filters="sRGB"><feFlood flood-opacity="0" result="BackgroundImageFix"/><feColorMatrix in="SourceAlpha" values="0 0 0 0 0 0 0 0 0 0 0 0 0 0 0 0 0 0 127 0"/><feOffset dy="2"/><feGaussianBlur stdDeviation="2"/><feColorMatrix values="0 0 0 0 0 0 0 0 0 0 0 0 0 0 0 0 0 0 0.25 0"/><feBlend in2="BackgroundImageFix" result="effect1_dropShadow"/><feBlend in="SourceGraphic" in2="effect1_dropShadow" result="shape"/></filter></defs></svg>